<?xml version="1.0" encoding="UTF-8" standalone="no"?>
<svg
   width="1440"
   height="155"
   viewBox="0 0 1440 155"
   fill="none"
   version="1.1"
   id="svg19"
   sodipodi:docname="Banner1.svg"
   inkscape:version="1.3.2 (091e20e, 2023-11-25, custom)"
   xmlns:inkscape="http://www.inkscape.org/namespaces/inkscape"
   xmlns:sodipodi="http://sodipodi.sourceforge.net/DTD/sodipodi-0.dtd"
   xmlns="http://www.w3.org/2000/svg"
   xmlns:svg="http://www.w3.org/2000/svg">
  <sodipodi:namedview
     id="namedview19"
     pagecolor="#ffffff"
     bordercolor="#000000"
     borderopacity="0.25"
     inkscape:showpageshadow="2"
     inkscape:pageopacity="0.0"
     inkscape:pagecheckerboard="0"
     inkscape:deskcolor="#d1d1d1"
     inkscape:zoom="0.44537907"
     inkscape:cx="722.97965"
     inkscape:cy="234.63159"
     inkscape:window-width="1920"
     inkscape:window-height="1001"
     inkscape:window-x="-9"
     inkscape:window-y="-9"
     inkscape:window-maximized="1"
     inkscape:current-layer="svg19" />
  <path
     d="M 0,0 H 1440 V 67 H 0 Z"
     fill="#f7f8f9"
     id="path1" />
  <path
     d="M 825.59603,-0.52832991 C 818.66627,49.058775 776.08363,87.221757 724.5872,87.221757 h -19.58545 c -51.49643,0 -94.07907,-38.163058 -101.00883,-87.75008691 z"
     fill="#83965f"
     id="path2"
     style="stroke-width:0.753808" />
  <g
     filter="url(#filter0_d_84_792)"
     id="g3"
     transform="matrix(0.75380847,0,0,0.75380847,175.43547,-0.52832991)">
    <path
       d="M 871.195,28 C 868.647,106.894 808.097,173.91 727.382,182.587 646.668,191.263 573.257,138.646 554,62.0958 Z"
       fill="#4f5139"
       id="path3"
       style="stroke:none" />
  </g>
  <g
     filter="url(#filter1_d_84_792)"
     id="g9"
     transform="matrix(0.87346399,0,0,1,91.105924,-22)">
    <path
       d="m 286.707,-161.315 v 261.422 l -132.641,35.838 v -297.26 z"
       fill="#8d5f73"
       id="path4" />
    <path
       d="m 1285.93,-161.315 v 261.422 l -132.64,35.838 v -297.26 z"
       fill="#8d5f73"
       id="path5" />
    <path
       d="M 89.6407,-202 V 59.4217 L -43,95.2599 V -202 Z"
       fill="#41342c"
       id="path6" />
    <path
       d="m 1088.87,-161.315 v 261.422 l -132.643,35.838 v -297.26 z"
       fill="#41342c"
       id="path7" />
    <path
       d="m 483.773,-161.315 v 261.422 l -132.641,35.838 v -297.26 z"
       fill="#41342c"
       id="path8" />
    <path
       d="M 1483,-202 V 59.4217 L 1350.36,95.2599 V -202 Z"
       fill="#41342c"
       id="path9" />
  </g>
  <g
     filter="url(#filter2_d_84_792)"
     id="g10"
     transform="matrix(0.75380847,0,0,0.75380847,175.43547,-0.52832991)">
    <path
       d="m 682.972,145.455 c -0.415,-0.054 -0.73,-0.208 -0.947,-0.464 -0.21,-0.227 -0.35,-0.486 -0.421,-0.778 -0.057,-0.233 -0.085,-0.411 -0.084,-0.535 -0.054,0.538 -0.402,0.885 -1.043,1.041 l -22.998,5.602 c -0.466,0.114 -0.855,0.039 -1.166,-0.225 -0.275,-0.242 -0.448,-0.508 -0.519,-0.8 -0.093,-0.379 -0.054,-0.728 0.115,-1.047 0.199,-0.326 0.502,-0.539 0.91,-0.638 l 22.997,-5.602 c 0.496,-0.121 0.899,-0.049 1.211,0.214 0.311,0.264 0.48,0.578 0.507,0.942 -0.065,-1.281 -0.165,-2.77 -0.301,-4.466 -0.113,-1.732 -0.269,-3.516 -0.469,-5.351 -0.207,-1.864 -0.444,-3.659 -0.71,-5.385 -0.266,-1.726 -0.559,-3.245 -0.878,-4.556 -0.078,-0.321 -0.149,-0.612 -0.213,-0.875 -0.071,-0.291 -0.153,-0.564 -0.246,-0.82 -0.915,-2.865 -2.077,-4.913 -3.489,-6.144 -1.411,-1.231 -3.128,-1.878 -5.15,-1.941 -2.023,-0.063 -4.433,0.246 -7.231,0.928 -1.458,0.355 -3.101,0.833 -4.931,1.433 -1.808,0.564 -3.602,1.186 -5.381,1.866 -1.787,0.652 -3.406,1.293 -4.858,1.925 1.463,6.004 2.881,11.572 4.254,16.702 1.402,5.124 2.7,9.625 3.891,13.503 0.165,0.423 0.119,0.805 -0.138,1.145 -0.227,0.334 -0.487,0.536 -0.778,0.607 -0.379,0.092 -0.743,0.057 -1.091,-0.105 -0.348,-0.162 -0.569,-0.433 -0.661,-0.812 -1.319,-4.403 -2.734,-9.384 -4.243,-14.945 -1.487,-5.597 -3.011,-11.602 -4.573,-18.015 -0.107,-0.437 -0.054,-0.789 0.159,-1.057 0.206,-0.297 0.465,-0.5 0.779,-0.607 0.787,-0.192 1.363,0.085 1.73,0.829 1.539,-0.653 2.9,-1.216 4.081,-1.689 1.182,-0.473 2.287,-0.881 3.315,-1.224 1.021,-0.372 2.052,-0.701 3.094,-0.985 1.065,-0.321 2.249,-0.656 3.554,-1.005 2.681,-0.653 5.049,-1.075 7.102,-1.267 2.053,-0.191 3.863,-0.045 5.432,0.437 1.562,0.453 2.917,1.327 4.066,2.622 1.179,1.288 2.219,3.088 3.122,5.4 0.179,0.481 0.354,1.01 0.525,1.585 0.171,0.576 0.335,1.185 0.491,1.826 0.504,2.07 0.927,4.375 1.268,6.916 0.371,2.535 0.661,5.058 0.871,7.569 0.211,2.512 0.346,4.779 0.407,6.802 0.019,0.459 -0.129,0.804 -0.443,1.035 -0.285,0.223 -0.592,0.36 -0.919,0.409 z m -29.369,-11.048 c -0.467,0.113 -0.852,0.053 -1.156,-0.182 -0.275,-0.242 -0.448,-0.508 -0.519,-0.8 -0.086,-0.349 -0.044,-0.684 0.126,-1.003 0.191,-0.355 0.491,-0.583 0.899,-0.682 l 23.915,-5.826 c 0.467,-0.114 0.838,-0.049 1.113,0.192 0.304,0.235 0.495,0.513 0.573,0.833 0.085,0.35 0.029,0.688 -0.17,1.014 -0.169,0.319 -0.458,0.529 -0.866,0.628 z m 60.609,4.596 c -0.35,0.085 -0.702,0.032 -1.058,-0.16 -0.319,-0.169 -0.528,-0.458 -0.627,-0.866 l -1.64,-6.733 -6.034,1.47 c -0.466,0.114 -0.852,0.053 -1.156,-0.182 -0.311,-0.263 -0.502,-0.541 -0.573,-0.832 -0.086,-0.35 -0.047,-0.699 0.115,-1.048 0.191,-0.355 0.506,-0.586 0.943,-0.692 l 6.034,-1.47 -3.153,-12.942 c -1.544,1.395 -3.125,2.954 -4.743,4.676 -1.589,1.715 -3.128,3.51 -4.617,5.385 -1.495,1.847 -2.896,3.701 -4.203,5.563 -0.176,0.29 -0.424,0.474 -0.745,0.552 -0.408,0.1 -0.793,0.039 -1.156,-0.181 -0.34,-0.257 -0.55,-0.546 -0.628,-0.866 -0.092,-0.379 -0.013,-0.754 0.236,-1.123 1.696,-2.42 3.302,-4.571 4.82,-6.454 1.51,-1.912 3.078,-3.714 4.704,-5.407 1.647,-1.729 3.502,-3.493 5.565,-5.293 l -0.66,-2.71 -17.751,4.324 c -0.408,0.099 -0.775,0.05 -1.102,-0.149 -0.326,-0.198 -0.539,-0.502 -0.638,-0.91 -0.22,-0.903 0.136,-1.469 1.069,-1.696 l 17.751,-4.324 -1.843,-7.5637 c -0.113,-0.4663 -0.049,-0.837 0.193,-1.1121 0.263,-0.3112 0.541,-0.5024 0.833,-0.5734 0.349,-0.0852 0.684,-0.0432 1.003,0.1261 0.348,0.1622 0.576,0.4619 0.682,0.8991 l 1.843,7.564 16.133,-3.93 c 0.408,-0.1 0.775,-0.05 1.101,0.148 0.319,0.17 0.529,0.458 0.628,0.866 0.092,0.379 0.028,0.75 -0.192,1.112 -0.199,0.327 -0.487,0.536 -0.866,0.628 l -16.133,3.93 0.862,3.542 c 0.029,-0.007 0.113,0.019 0.251,0.078 0.16,0.022 0.556,0.127 1.188,0.312 0.624,0.157 1.649,0.432 3.072,0.827 1.417,0.365 3.382,0.89 5.896,1.574 2.535,0.648 5.801,1.505 9.796,2.57 0.552,0.236 0.884,0.587 0.998,1.053 0.071,0.292 0.066,0.525 -0.015,0.699 -0.207,0.544 -0.544,0.873 -1.01,0.987 -0.234,0.057 -0.466,0.052 -0.699,-0.015 l -18.731,-5.025 2.971,12.199 6.427,-1.566 c 0.467,-0.114 0.841,-0.035 1.123,0.236 0.311,0.264 0.503,0.541 0.574,0.833 0.085,0.35 0.046,0.699 -0.116,1.047 -0.169,0.319 -0.472,0.532 -0.91,0.638 l -6.427,1.566 1.64,6.733 c 0.114,0.466 0.05,0.837 -0.192,1.112 -0.235,0.304 -0.512,0.496 -0.833,0.574 z m 37.071,-12.18 c -2.099,0.511 -4.089,0.579 -5.972,0.204 -1.882,-0.375 -3.602,-1.099 -5.16,-2.17 -1.529,-1.079 -2.83,-2.43 -3.905,-4.051 -1.081,-1.651 -1.867,-3.482 -2.357,-5.494 -0.653,-2.681 -0.772,-5.199 -0.358,-7.554 0.415,-2.355 1.271,-4.478 2.571,-6.37 1.292,-1.9201 2.964,-3.5472 5.017,-4.8809 2.075,-1.3699 4.438,-2.378 7.091,-3.0241 2.623,-0.639 5.153,-0.8384 7.589,-0.5981 2.429,0.2111 4.648,0.8284 6.657,1.8519 2.032,0.9873 3.733,2.3328 5.106,4.0364 1.401,1.6968 2.382,3.6958 2.943,5.9988 0.362,1.487 0.523,3.099 0.484,4.838 0.012,0.306 -0.062,0.571 -0.223,0.795 -0.169,0.196 -0.37,0.322 -0.603,0.379 -0.35,0.085 -0.702,0.032 -1.058,-0.159 -0.362,-0.221 -0.589,-0.521 -0.682,-0.9 -0.042,-0.174 -0.06,-0.309 -0.052,-0.404 0.03,-1.397 -0.104,-2.707 -0.402,-3.931 -0.483,-1.982 -1.36,-3.683 -2.632,-5.102 -1.25,-1.4557 -2.808,-2.5893 -4.673,-3.401 -1.843,-0.8478 -3.888,-1.3222 -6.136,-1.4231 1.509,1.8864 2.872,3.9938 4.088,6.3221 1.244,2.321 2.14,4.604 2.687,6.849 1.2,4.926 0.997,8.912 -0.607,11.958 -1.583,3.01 -4.72,5.087 -9.413,6.23 z m -0.618,-2.536 c 3.644,-0.887 6.153,-2.502 7.527,-4.844 1.404,-2.349 1.717,-5.25 0.937,-8.704 -0.682,-2.798 -1.717,-5.526 -3.105,-8.183 -1.366,-2.6929 -3.011,-5.0094 -4.935,-6.9492 -0.837,0.1114 -1.649,0.2629 -2.436,0.4546 -2.828,0.6888 -5.276,1.8564 -7.345,3.5029 -2.047,1.6097 -3.551,3.6127 -4.511,6.0087 -0.939,2.359 -1.173,5.009 -0.703,7.952 0.353,1.828 0.961,3.502 1.825,5.021 0.893,1.511 1.988,2.773 3.284,3.785 1.297,1.012 2.744,1.694 4.343,2.045 1.635,0.374 3.341,0.344 5.119,-0.089 z m 32.243,-0.814 c -0.48,0.055 -0.876,-0.049 -1.187,-0.313 -0.283,-0.271 -0.466,-0.581 -0.551,-0.931 -1.044,-5.551 -1.894,-11.071 -2.553,-16.562 -0.636,-5.526 -0.985,-10.9526 -1.047,-16.2791 -0.35,0.0852 -0.688,0.0286 -1.014,-0.1698 -0.334,-0.2276 -0.546,-0.5309 -0.639,-0.9098 -0.099,-0.4081 -0.068,-0.7862 0.094,-1.1345 0.163,-0.3483 0.477,-0.5792 0.943,-0.6928 l 15.74,-3.8342 -1.118,-4.5907 c -0.121,-0.4955 -0.061,-0.8808 0.181,-1.1558 0.264,-0.3113 0.556,-0.506 0.877,-0.5841 0.408,-0.0994 0.793,-0.0389 1.156,0.1816 0.355,0.1913 0.579,0.4764 0.671,0.8554 l 1.119,4.5907 15.433,-3.7596 c 0.437,-0.1065 0.823,-0.0459 1.156,0.1816 0.363,0.2205 0.593,0.5348 0.693,0.9428 0.099,0.4081 0.035,0.7788 -0.192,1.1121 -0.199,0.3263 -0.517,0.5426 -0.954,0.6491 l -31.217,7.6044 c 0.09,5.5669 0.457,11.0662 1.101,16.4977 0.637,5.403 1.491,10.938 2.563,16.606 0.125,0.895 -0.293,1.46 -1.255,1.695 z m 20.549,-5.006 c -2.943,0.717 -5.55,1.043 -7.82,0.979 -2.234,-0.043 -4.089,-0.625 -5.567,-1.747 -1.47,-1.093 -2.5,-2.85 -3.089,-5.269 -0.476,-1.953 -0.626,-3.583 -0.451,-4.892 0.197,-1.345 0.713,-2.459 1.548,-3.341 0.835,-0.883 1.978,-1.64 3.43,-2.272 1.481,-0.638 3.26,-1.257 5.337,-1.856 l -2.982,-12.2417 c -0.227,-0.9328 0.126,-1.5127 1.059,-1.7399 0.408,-0.0994 0.775,-0.0499 1.101,0.1485 0.355,0.1913 0.583,0.491 0.682,0.8991 l 1.076,4.4159 11.892,-2.8969 c 0.496,-0.1207 0.895,-0.0638 1.2,0.1709 0.297,0.2055 0.495,0.5123 0.594,0.9204 0.114,0.4664 0.039,0.8552 -0.225,1.1665 -0.264,0.3113 -0.556,0.506 -0.877,0.5841 l -11.892,2.8969 1.214,4.9842 c 2.828,-0.6887 5.289,-1.0413 7.385,-1.0577 2.095,-0.0165 3.831,0.5179 5.207,1.603 1.376,1.0857 2.387,2.9537 3.033,5.6067 0.511,2.098 0.57,3.86 0.176,5.283 -0.365,1.417 -1.097,2.599 -2.194,3.545 -1.097,0.947 -2.495,1.735 -4.194,2.365 -1.663,0.652 -3.544,1.234 -5.643,1.745 z m -0.692,-2.842 c 2.536,-0.618 4.599,-1.275 6.19,-1.971 1.619,-0.703 2.72,-1.635 3.302,-2.796 0.618,-1.138 0.689,-2.684 0.213,-4.637 -0.497,-2.04 -1.263,-3.413 -2.3,-4.118 -1.043,-0.734 -2.438,-1.011 -4.186,-0.833 -1.725,0.143 -3.87,0.526 -6.435,1.151 -1.836,0.448 -3.444,0.885 -4.821,1.314 -1.378,0.428 -2.498,0.963 -3.361,1.606 -0.869,0.613 -1.442,1.432 -1.717,2.456 -0.283,0.995 -0.225,2.309 0.172,3.941 0.448,1.836 1.237,3.111 2.368,3.823 1.167,0.735 2.638,1.071 4.414,1.009 1.776,-0.062 3.829,-0.377 6.161,-0.945 z"
       fill="#83965f"
       id="path10" />
  </g>
  <g
     filter="url(#filter3_d_84_792)"
     id="g11"
     transform="matrix(0.75380847,0,0,0.75380847,175.43547,-0.52832991)">
    <path
       d="m 642.805,111.817 v -2.565 h -20.61 v 2.115 l -5.265,0.45 -0.81,-38.8346 h 6.075 v 1.71 l 26.685,-1.71 -0.81,38.3846 z m 0,-32.9846 h -20.61 v 10.755 l 20.61,-1.485 z m 0,14.85 h -20.61 v 11.4296 l 20.61,-1.44 z m 50.42,11.3846 c -0.84,-0.72 -1.68,-1.485 -2.52,-2.295 -0.84,-0.84 -1.695,-1.725 -2.565,-2.655 v 4.095 h -8.325 l -0.135,6.705 -5.085,0.9 v -7.605 h -7.875 l -0.9,-3.645 8.775,-0.7646 v -10.35 c -1.53,2.1 -3.075,4.02 -4.635,5.76 -1.56,1.74 -3.225,3.42 -4.995,5.0396 -1.77,1.62 -3.765,3.315 -5.985,5.085 l -1.935,-2.61 c 1.95,-1.89 3.705,-3.7196 5.265,-5.4896 1.59,-1.77 3.075,-3.645 4.455,-5.625 1.41,-1.98 2.82,-4.23 4.23,-6.75 H 658.8 l -0.9,-3.96 16.695,-0.855 v -8.685 l 5.985,0.9 -0.18,7.47 16.2,-0.81 v 5.94 h -16.335 v 1.395 c 3.18,2.76 6.165,5.19 8.955,7.29 2.82,2.1 5.595,3.99 8.325,5.67 z m -6.39,-6.3446 c -2.13,-2.34 -4.365,-5.07 -6.705,-8.19 l -0.18,8.775 z m 43.175,8.0096 c 1.68,-2.22 3.105,-4.515 4.275,-6.8846 1.17,-2.4 1.755,-4.89 1.755,-7.47 0,-2.28 -0.51,-4.185 -1.53,-5.715 -1.02,-1.56 -2.445,-2.745 -4.275,-3.555 -1.8,-0.81 -3.93,-1.215 -6.39,-1.215 -1.95,0 -3.855,0.405 -5.715,1.215 -1.86,0.81 -3.54,1.905 -5.04,3.285 -1.47,1.38 -2.655,2.955 -3.555,4.725 -0.87,1.77 -1.305,3.63 -1.305,5.58 0,1.26 0.225,2.19 0.675,2.79 0.45,0.5696 1.08,0.8546 1.89,0.8546 0.54,0 1.11,-0.105 1.71,-0.315 1.35,-0.4796 2.79,-1.3046 4.32,-2.4746 1.56,-1.2 3.105,-2.61 4.635,-4.23 1.56,-1.65 2.985,-3.375 4.275,-5.175 1.29,-1.83 2.34,-3.6 3.15,-5.31 l 3.33,2.61 c -0.9,2.07 -2.055,4.2 -3.465,6.39 -1.38,2.16 -2.94,4.23 -4.68,6.21 -1.71,1.95 -3.54,3.6596 -5.49,5.1296 -1.92,1.44 -3.885,2.49 -5.895,3.15 -1.2,0.39 -2.34,0.585 -3.42,0.585 -2.37,0 -4.155,-0.9 -5.355,-2.7 -1.2,-1.8 -1.8,-4.095 -1.8,-6.8846 0,-2.13 0.39,-4.17 1.17,-6.12 0.81,-1.98 1.92,-3.795 3.33,-5.445 1.41,-1.65 3.045,-3.075 4.905,-4.275 1.86,-1.23 3.855,-2.175 5.985,-2.835 2.13,-0.69 4.29,-1.035 6.48,-1.035 3.78,0 7.035,0.585 9.765,1.755 2.73,1.14 4.83,2.775 6.3,4.905 1.47,2.13 2.205,4.665 2.205,7.605 0,1.98 -0.375,3.975 -1.125,5.985 -0.72,1.98 -1.71,3.8846 -2.97,5.7146 -1.26,1.8 -2.715,3.405 -4.365,4.815 z m 24.68,-25.6946 v 5.76 c 0,2.49 -0.21,5.205 -0.63,8.145 -0.42,2.94 -1.05,5.8796 -1.89,8.8196 -0.84,2.91 -1.905,5.595 -3.195,8.055 l -2.43,-1.305 c 0.66,-2.61 1.155,-5.16 1.485,-7.65 0.36,-2.49 0.6,-5.0546 0.72,-7.6946 0.15,-2.67 0.225,-5.535 0.225,-8.595 v -11.295 h 5.715 v 1.575 l 11.07,-0.54 c -0.6,-0.66 -0.9,-1.425 -0.9,-2.295 0,-0.93 0.315,-1.71 0.945,-2.34 0.66,-0.66 1.455,-0.99 2.385,-0.99 0.93,0 1.71,0.33 2.34,0.99 0.66,0.63 0.99,1.41 0.99,2.34 0,0.75 -0.225,1.425 -0.675,2.025 l 15.615,-0.765 v 5.76 z m 23.13,30.7796 v -2.295 h -16.56 v 1.845 l -4.86,0.45 -0.81,-17.9096 h 5.67 v 1.71 l 4.635,-0.36 v -13.59 l 5.67,0.675 -0.225,3.78 13.545,-1.62 v 5.49 h -13.77 l -0.27,4.905 12.645,-0.99 -0.81,17.4596 z m 0,-12.2396 h -16.56 v 6.2096 l 16.56,-1.44 z"
       fill="#f7cf89"
       id="path11" />
  </g>
  <defs
     id="defs19">
    <filter
       id="filter0_d_84_792"
       x="550"
       y="28"
       width="325.19501"
       height="163.521"
       filterUnits="userSpaceOnUse"
       color-interpolation-filters="sRGB">
      <feFlood
         flood-opacity="0"
         result="BackgroundImageFix"
         id="feFlood11" />
      <feColorMatrix
         in="SourceAlpha"
         type="matrix"
         values="0 0 0 0 0 0 0 0 0 0 0 0 0 0 0 0 0 0 127 0"
         result="hardAlpha"
         id="feColorMatrix11" />
      <feOffset
         dy="4"
         id="feOffset11" />
      <feGaussianBlur
         stdDeviation="2"
         id="feGaussianBlur11" />
      <feComposite
         in2="hardAlpha"
         operator="out"
         id="feComposite11" />
      <feColorMatrix
         type="matrix"
         values="0 0 0 0 0 0 0 0 0 0 0 0 0 0 0 0 0 0 0.25 0"
         id="feColorMatrix12" />
      <feBlend
         mode="normal"
         in2="BackgroundImageFix"
         result="effect1_dropShadow_84_792"
         id="feBlend12" />
      <feBlend
         mode="normal"
         in="SourceGraphic"
         in2="effect1_dropShadow_84_792"
         result="shape"
         id="feBlend13" />
    </filter>
    <filter
       id="filter1_d_84_792"
       x="-43"
       y="-202"
       width="1526"
       height="345.94501"
       filterUnits="userSpaceOnUse"
       color-interpolation-filters="sRGB">
      <feFlood
         flood-opacity="0"
         result="BackgroundImageFix"
         id="feFlood13" />
      <feColorMatrix
         in="SourceAlpha"
         type="matrix"
         values="0 0 0 0 0 0 0 0 0 0 0 0 0 0 0 0 0 0 127 0"
         result="hardAlpha"
         id="feColorMatrix13" />
      <feOffset
         dy="8"
         id="feOffset13" />
      <feComposite
         in2="hardAlpha"
         operator="out"
         id="feComposite13" />
      <feColorMatrix
         type="matrix"
         values="0 0 0 0 0.968627 0 0 0 0 0.972549 0 0 0 0 0.976471 0 0 0 1 0"
         id="feColorMatrix14" />
      <feBlend
         mode="normal"
         in2="BackgroundImageFix"
         result="effect1_dropShadow_84_792"
         id="feBlend14" />
      <feBlend
         mode="normal"
         in="SourceGraphic"
         in2="effect1_dropShadow_84_792"
         result="shape"
         id="feBlend15" />
    </filter>
    <filter
       id="filter2_d_84_792"
       x="639.04901"
       y="71.657501"
       width="186.28999"
       height="91.365196"
       filterUnits="userSpaceOnUse"
       color-interpolation-filters="sRGB">
      <feFlood
         flood-opacity="0"
         result="BackgroundImageFix"
         id="feFlood15" />
      <feColorMatrix
         in="SourceAlpha"
         type="matrix"
         values="0 0 0 0 0 0 0 0 0 0 0 0 0 0 0 0 0 0 127 0"
         result="hardAlpha"
         id="feColorMatrix15" />
      <feOffset
         dy="4"
         id="feOffset15" />
      <feGaussianBlur
         stdDeviation="2"
         id="feGaussianBlur15" />
      <feComposite
         in2="hardAlpha"
         operator="out"
         id="feComposite15" />
      <feColorMatrix
         type="matrix"
         values="0 0 0 0 0 0 0 0 0 0 0 0 0 0 0 0 0 0 0.25 0"
         id="feColorMatrix16" />
      <feBlend
         mode="normal"
         in2="BackgroundImageFix"
         result="effect1_dropShadow_84_792"
         id="feBlend16" />
      <feBlend
         mode="normal"
         in="SourceGraphic"
         in2="effect1_dropShadow_84_792"
         result="shape"
         id="feBlend17" />
    </filter>
    <filter
       id="filter3_d_84_792"
       x="612.12"
       y="70.687401"
       width="178.34"
       height="49.130001"
       filterUnits="userSpaceOnUse"
       color-interpolation-filters="sRGB">
      <feFlood
         flood-opacity="0"
         result="BackgroundImageFix"
         id="feFlood17" />
      <feColorMatrix
         in="SourceAlpha"
         type="matrix"
         values="0 0 0 0 0 0 0 0 0 0 0 0 0 0 0 0 0 0 127 0"
         result="hardAlpha"
         id="feColorMatrix17" />
      <feOffset
         dy="4"
         id="feOffset17" />
      <feGaussianBlur
         stdDeviation="2"
         id="feGaussianBlur17" />
      <feComposite
         in2="hardAlpha"
         operator="out"
         id="feComposite17" />
      <feColorMatrix
         type="matrix"
         values="0 0 0 0 0 0 0 0 0 0 0 0 0 0 0 0 0 0 0.25 0"
         id="feColorMatrix18" />
      <feBlend
         mode="normal"
         in2="BackgroundImageFix"
         result="effect1_dropShadow_84_792"
         id="feBlend18" />
      <feBlend
         mode="normal"
         in="SourceGraphic"
         in2="effect1_dropShadow_84_792"
         result="shape"
         id="feBlend19" />
    </filter>
  </defs>
</svg>
