<?xml version="1.0" encoding="UTF-8" standalone="no"?>
<svg
   width="1440"
   height="268.26212"
   viewBox="0 0 1440 268.26211"
   fill="none"
   version="1.1"
   id="svg14"
   sodipodi:docname="Banner2.svg"
   inkscape:version="1.3.2 (091e20e, 2023-11-25, custom)"
   xmlns:inkscape="http://www.inkscape.org/namespaces/inkscape"
   xmlns:sodipodi="http://sodipodi.sourceforge.net/DTD/sodipodi-0.dtd"
   xmlns="http://www.w3.org/2000/svg"
   xmlns:svg="http://www.w3.org/2000/svg">
  <sodipodi:namedview
     id="namedview14"
     pagecolor="#ffffff"
     bordercolor="#000000"
     borderopacity="0.25"
     inkscape:showpageshadow="2"
     inkscape:pageopacity="0.0"
     inkscape:pagecheckerboard="0"
     inkscape:deskcolor="#d1d1d1"
     inkscape:zoom="0.62986111"
     inkscape:cx="783.50607"
     inkscape:cy="105.57883"
     inkscape:window-width="1920"
     inkscape:window-height="1001"
     inkscape:window-x="-9"
     inkscape:window-y="-9"
     inkscape:window-maximized="1"
     inkscape:current-layer="svg14" />
  <g
     clip-path="url(#clip0_237_318)"
     id="g14"
     transform="translate(0,-69.517784)">
    <mask
       id="mask0_237_318"
       maskUnits="userSpaceOnUse"
       x="-43"
       y="34"
       width="1526"
       height="733">
      <path
         d="M -43,34.1771 H 1483 V 766.177 H -43 Z"
         fill="#ffffff"
         id="path1" />
    </mask>
    <g
       mask="url(#mask0_237_318)"
       id="g13">
      <path
         d="M -43,69.517784 H 1483 V 337.77989 H -43 Z"
         fill="#83965f"
         id="path2"
         style="stroke-width:0.605374" />
      <path
         d="m 686.60083,246.59499 h 958.79837 v 26.74759 L 686.60083,259.28295 Z"
         fill="#41342c"
         id="path6"
         style="stroke-width:0.685836" />
      <path
         d="m 931.44418,128.63125 h 713.95502 v 26.74759 L 931.44418,141.31921 Z"
         fill="#41342c"
         id="path7"
         style="stroke-width:0.685836" />
      <path
         d="m 1312.7688,189.67062 c -4.9723,32.16776 -35.5537,56.92437 -72.5271,56.92437 h -14.0596 c -36.9803,0 -67.5548,-24.75661 -72.5271,-56.92437 z"
         fill="#f7f8f9"
         id="path8"
         style="stroke-width:0.685836" />
      <path
         d="m 1137.8807,207.50235 c -3.4086,22.09077 -24.3677,39.09264 -49.7025,39.09264 h -9.6428 c -25.3382,0 -46.2926,-17.00187 -49.7025,-39.09264 z"
         fill="#f7f8f9"
         id="path9"
         style="stroke-width:0.685836" />
      <path
         d="M 971.22265,128.63125 H 945.1609 v 121.39292 h 26.06175 z"
         fill="#41342c"
         id="path10"
         style="stroke-width:0.685836" />
      <path
         d="m 925.9575,246.59499 v 66.94991 l -139.91049,9.17785 v -76.12776 z"
         fill="#4f5139"
         id="path11"
         style="stroke-width:0.685836" />
      <path
         d="m 1319.6272,246.59499 v 66.94991 l -139.9105,9.17785 v -76.12776 z"
         fill="#4f5139"
         id="path12"
         style="stroke-width:0.685836" />
      <path
         d="m 1120.049,245.90915 v 66.94992 l -141.28215,9.17785 v -76.12777 z"
         fill="#f7cf89"
         id="path13"
         style="stroke-width:0.685836" />
    </g>
  </g>
  <defs
     id="defs14">
    <clipPath
       id="clip0_237_318">
      <rect
         width="1440"
         height="801"
         fill="#ffffff"
         id="rect14"
         x="0"
         y="0" />
    </clipPath>
  </defs>
</svg>
