<?xml version="1.0" encoding="UTF-8" standalone="no"?>
<svg
   width="1440"
   height="464.86044"
   viewBox="0 0 1440 464.86044"
   fill="none"
   version="1.1"
   id="svg12"
   sodipodi:docname="Banner3.svg"
   inkscape:version="1.3.2 (091e20e, 2023-11-25, custom)"
   xmlns:inkscape="http://www.inkscape.org/namespaces/inkscape"
   xmlns:sodipodi="http://sodipodi.sourceforge.net/DTD/sodipodi-0.dtd"
   xmlns="http://www.w3.org/2000/svg"
   xmlns:svg="http://www.w3.org/2000/svg">
  <sodipodi:namedview
     id="namedview12"
     pagecolor="#ffffff"
     bordercolor="#000000"
     borderopacity="0.25"
     inkscape:showpageshadow="2"
     inkscape:pageopacity="0.0"
     inkscape:pagecheckerboard="0"
     inkscape:deskcolor="#d1d1d1"
     inkscape:zoom="0.51952707"
     inkscape:cx="765.11894"
     inkscape:cy="362.82999"
     inkscape:window-width="1920"
     inkscape:window-height="1001"
     inkscape:window-x="-9"
     inkscape:window-y="-9"
     inkscape:window-maximized="1"
     inkscape:current-layer="svg12" />
  <g
     clip-path="url(#clip0_237_340)"
     id="g12">
    <path
       d="M -43,34.177 H 1483 V 331.16598 H -43 Z"
       fill="#83965f"
       id="path1"
       style="stroke-width:0.636963" />
    <path
       d="m -2.99984,33.5769 0.30005,19.9978 C 22.359,53.1987 47.4592,55.8125 72.6319,61.4467 L 77.0002,41.9295 81.3685,22.4124 C 53.2079,16.1095 24.9748,13.1549 -3.2999,13.5792 Z m 80.00004,8.3526 -4.3683,19.5172 c 30.7291,6.8778 61.4371,4.2555 91.6191,-7.4866 L 157,35.3209 149.749,16.6818 c -23.151,9.0063 -45.777,10.7898 -68.3805,5.7306 z M 157,35.3209 l 7.251,18.6392 c 23.828,-9.2697 47.212,-12.3684 70.421,-9.6481 L 237,24.448 239.328,4.58395 C 209.204,1.05306 179.255,5.20294 149.749,16.6818 Z m 80,-10.8729 -2.328,19.864 c 26.038,3.0519 52.089,7.3565 78.156,12.9167 L 317,37.6688 l 4.172,-19.56 C 293.905,12.2925 266.624,7.78324 239.328,4.58395 Z m 80,13.2208 -4.172,19.5599 c 29.218,6.2325 58.533,6.6634 87.795,1.273 L 397,38.8326 393.377,19.1636 c -24.072,4.4342 -48.09,4.0892 -72.205,-1.0548 z m 80,1.1638 3.623,19.6691 c 23.715,-4.3686 47.4,-3.4371 71.266,2.8712 L 477,42.037 482.111,22.7011 c -29.467,-7.7889 -59.116,-8.9936 -88.734,-3.5375 z m 80,3.2044 -5.111,19.3359 c 29.512,7.8008 59.207,8.9072 88.861,3.2458 L 557,44.9735 553.25,25.3283 c -23.679,4.5205 -47.318,3.6692 -71.139,-2.6272 z m 80,2.9365 3.75,19.6452 c 27.235,-5.1994 54.454,-11.6188 81.656,-19.2549 L 637,26.1081 631.594,6.85248 C 605.463,14.1883 579.348,20.3458 553.25,25.3283 Z m 80,-18.8654 5.406,19.2557 c 23.446,-6.5821 46.677,-7.0945 70.012,-1.6026 L 717,24.2931 721.582,4.82502 c -29.998,-7.05998 -60.101,-6.36241 -89.988,2.02746 z m 80,-1.815 -4.582,19.4681 c 28.604,6.7319 57.317,9.0525 86.068,6.9102 L 797,30.7267 795.514,10.782 c -24.582,1.8316 -49.203,-0.137 -73.932,-5.95698 z m 80,6.4336 1.486,19.9447 c 26.794,-1.9964 53.588,-4.2508 80.381,-6.7631 L 877,23.9957 875.133,4.08302 c -26.54,2.48855 -53.08,4.72153 -79.619,6.69898 z m 80,-6.731 1.867,19.9126 c 25.825,-2.4215 51.642,-3.1952 77.457,-2.3225 L 957,21.5972 957.676,1.60861 C 930.157,0.678374 902.641,1.50365 875.133,4.08302 Z m 80,-2.3985 -0.676,19.9886 c 26.46,0.8944 52.916,2.201 79.376,3.9199 l 1.3,-19.9579 1.3,-19.95793 C 1011.42,3.84416 984.55,2.51706 957.676,1.60861 Z m 80,3.9506 -1.3,19.9579 c 25.6,1.6626 51.22,5.3904 76.89,11.1961 l 4.41,-19.5072 4.41,-19.5071 C 1093.74,11.4287 1066.04,7.39187 1038.3,5.58987 Z m 80,11.6468 -4.41,19.5072 c 29.31,6.6302 58.73,7.1983 88.11,1.675 l -3.7,-19.6555 -3.7,-19.6555 c -23.96,4.5057 -47.86,4.056 -71.89,-1.3783 z m 80,1.5267 3.7,19.6555 c 24.84,-4.6712 49.61,-5.803 74.38,-3.4185 l 1.92,-19.9079 1.92,-19.908 c -28.57,-2.7499 -57.12,-1.4344 -85.62,3.9234 z m 80,-3.6709 -1.92,19.9079 c 27.82,2.6782 55.65,2.9333 83.47,0.7643 L 1357,35.7831 1355.45,15.8436 c -25.51,1.9885 -51.02,1.7552 -76.53,-0.7012 z m 80,0.7327 1.55,19.9395 c 26.78,-2.0871 53.55,-4.3902 80.32,-6.9094 L 1437,28.9012 1435.13,8.98911 c -26.56,2.49919 -53.12,4.78409 -79.68,6.85449 z m 80,-6.8819 1.87,19.912 c 9.88,-0.9296 14.97,1.1398 17.84,3.3886 3.04,2.3754 6.7,7.394 8.86,18.3263 l 19.62,-3.8709 19.62,-3.8709 c -3.3,-16.7476 -10.4,-31.8616 -23.43,-42.0716 -13.19,-10.3365 -29.47,-13.30523 -46.25,-11.72559 z m 48.19,37.756 -19.62,3.8709 c 46.2584,234.71615 45.8099,25.538639 39.24,-7.7418 z m -8.94,44.9818 19.7,-3.462 19.69,-3.462 c -39.2655,-223.67117 -46.427,-33.102787 -39.39,6.924 z m 19.7,-3.462 -19.7,3.462 c -11.7793,101.99221 56.1459,99.84384 39.39,-6.924 z m -31.87,4.859 18.78,-6.859 18.79,-6.859 c -91.854,-251.63309 -39.298,8.98475 -37.57,13.718 z m 18.78,-6.859 -18.78,6.859 c 8.37,22.928 9.41,45.401 3.39,67.983 l 19.32,5.158 19.32,5.158 c 8.21,-30.751 6.64,-61.612 -4.46,-92.017 z m 3.93,80 -19.32,-5.158 c -7.56,28.3 -11.34,56.71 -11.3,85.189 l 20,-0.031 20,-0.031 c -0.04,-24.854 3.26,-49.777 9.94,-74.811 z m -10.62,80 -20,0.031 c 0.04,21.702 -6.96,31.485 -16.78,36.595 l 9.23,17.742 9.23,17.743 c 27,-14.048 38.37,-40.51 38.32,-72.142 z m -27.55,54.368 -9.23,-17.742 c -14.39,7.483 -33.08,11.153 -57.14,9.649 l -1.25,19.961 -1.25,19.962 c 29.27,1.829 55.66,-2.412 78.1,-14.087 z m -67.62,11.868 1.25,-19.961 c -27.64,-1.727 -55.28,-1.438 -82.91,0.867 l 1.66,19.931 1.66,19.93 c 25.7,-2.143 51.4,-2.412 77.09,-0.805 z m -80,0.837 -1.66,-19.931 c -24.96,2.082 -49.93,0.978 -74.95,-3.328 l -3.39,19.711 -3.39,19.71 c 28.31,4.873 56.68,6.135 85.05,3.768 z m -80,-3.548 3.39,-19.711 c -27.08,-4.66 -54.16,-8.445 -81.26,-11.352 l -2.13,19.886 -2.13,19.886 c 26.24,2.816 52.48,6.482 78.74,11.001 z m -80,-11.177 2.13,-19.886 c -28.65,-3.074 -57.29,-1.879 -85.87,3.562 l 3.74,19.647 3.74,19.647 c 24.76,-4.713 49.44,-5.733 74.13,-3.084 z m -80,3.323 -3.74,-19.647 c -24.69,4.702 -49.32,5.606 -73.946,2.737 l -2.314,19.866 -2.314,19.865 c 28.704,3.345 57.414,2.279 86.054,-3.174 z m -80,2.956 2.314,-19.866 c -27.268,-3.177 -54.544,-5.1 -81.824,-5.768 l -0.49,19.994 -0.49,19.994 c 26.053,0.638 52.111,2.475 78.176,5.511 z m -80,-5.64 0.49,-19.994 c -28.301,-0.694 -56.564,2.051 -84.755,8.205 l 4.265,19.54 4.265,19.54 c 25.142,-5.488 50.213,-7.911 75.245,-7.297 z m -80,7.751 -4.265,-19.54 c -25.684,5.607 -51.331,9.184 -76.95,10.743 l 1.215,19.963 1.215,19.963 c 27.715,-1.687 55.401,-5.554 83.05,-11.589 z m -80,11.166 -1.215,-19.963 c -24.321,1.48 -48.723,-1.238 -73.296,-8.251 l -5.489,19.232 -5.489,19.232 c 28.76,8.208 57.692,11.478 86.704,9.713 z m -80,-8.982 5.489,-19.232 c -29.663,-8.466 -59.552,-9.773 -89.402,-3.817 l 3.913,19.613 3.913,19.614 c 23.484,-4.686 46.928,-3.702 70.598,3.054 z m -80,-3.436 -3.913,-19.613 c -23.788,4.746 -47.513,4.249 -71.38,-1.531 l -4.707,19.438 -4.707,19.438 c 29.467,7.137 59.075,7.777 88.62,1.882 z m -80,-1.706 4.707,-19.438 c -30.017,-7.269 -60.154,-6.704 -90.08,1.642 l 5.373,19.265 5.373,19.265 c 23.407,-6.528 46.604,-6.942 69.92,-1.296 z m -80,1.469 -5.373,-19.265 c -22.856,6.375 -45.533,5.924 -68.523,-1.445 l -6.104,19.046 -6.104,19.046 c 30.343,9.725 60.999,10.383 91.477,1.883 z m -80,-1.664 6.104,-19.046 c -30.755,-9.857 -61.798,-9.591 -92.491,0.751 l 6.387,18.953 6.387,18.953 c 22.641,-7.629 44.93,-7.802 67.509,-0.565 z m -80,0.658 -6.387,-18.953 c -23.065,7.773 -45.766,8.612 -68.585,2.685 L 181,327.51 l -5.028,19.358 c 30.514,7.925 61.147,6.704 91.415,-3.495 z m -80,3.09 5.028,-19.358 c -28.804,-7.481 -57.754,-10.003 -86.7542,-7.491 l 1.7262,19.926 1.726,19.925 c 24.333,-2.108 48.717,-0.015 73.246,6.356 z m -80,-6.923 -1.7262,-19.926 c -25.298,2.192 -50.592,1.779 -75.9036,-1.241 l -2.37,19.859 -2.37,19.859 c 28.0217,3.344 56.061,3.803 84.0958,1.374 z m -79.9998,-1.308 2.37,-19.859 C -0.929909,296.52 -6.83864,289.062 -8.42123,284.624 l -18.83817,6.717 -18.8383,6.717 c 9.4303,26.447 35.6946,37.615 64.7279,41.08 z m -48.2596,-27.938 18.83817,-6.717 c -4.40537,-12.355 -7.08807,-30.809 -7.07067,-56.433 l -20,-0.014 -20,-0.014 c -0.0188,27.71 2.7868,51.365 9.3942,69.895 z m -8.2325,-63.164 20,0.014 c 0.0186,-27.505 -1.6863,-55.002 -5.112,-82.488 l -19.8465,2.474 -19.8464,2.474 c 3.2217,25.848 4.8224,51.684 4.8049,77.512 z m -4.9585,-80 19.8465,-2.474 c -29.493298,-236.624783 -43.271114,-23.76113 -39.6929,4.948 z m 7.8956,-43.216 -19.3077,5.216 -19.3078,5.216 c -3.148239,102.7899 64.9827777,94.87743 38.6155,-10.432 z m -19.3077,5.216 19.3077,-5.216 c -7.037,-26.0466 -5.2722,-38.5393 -2.7288,-43.1943 l -17.551,-9.5896 -17.5511,-9.5896 c -10.5697,19.345 -8.1568,45.519 -0.7846,72.8055 z m -0.9721,-57.9999 17.551,9.5896 c 0.8056,-1.4743 6.516,-7.8009 32.58381,-8.192 L -2.99984,33.5769 -3.2999,13.5792 c -27.2655,0.4091 -54.7782,6.4826 -67.0858,29.0083 z"
       fill="#ffffff"
       id="path2"
       sodipodi:nodetypes="ccccccccccccccccccccccccccccccccccccccccccccccccccccccccccccccccccccccccccccccccccccccccccccccccccccccccccccccccccccccccccccccccccccccccccccccccccccccccccccccccccccccccccccccccccccccccccccccccccccccccccccccccccccccccccccccccccccccccccccccccccccccccccccccccccccccccccccccccccccccccccccccccccccccccccccccccccccccccccccccccccccccccccccccccccccc" />
    <path
       d="M 919.94197,154.23024 H 1459 v 30.8259 L 919.94197,168.85278 Z"
       fill="#41342c"
       id="path5"
       style="stroke-width:0.790408" />
    <path
       d="m 1134.1424,154.23024 v 273.17991 l -161.24312,37.4503 V 154.23024 Z"
       fill="#4f5139"
       id="path6"
       style="stroke-width:0.790408" />
    <path
       d="m 1357.8278,154.23024 v 273.17991 l -162.824,37.4503 V 154.23024 Z"
       fill="#f7cf89"
       id="path7"
       style="stroke-width:0.790408" />
    <path
       d="m 1253.494,109.177 c 3.9283,25.45903 28.0832,45.05324 57.2808,45.05324 h 11.1132 c 29.2055,0 53.3525,-19.59421 57.2808,-45.05324 z"
       fill="#f7f8f9"
       id="path10"
       style="stroke-width:0.790408" />
  </g>
  <defs
     id="defs12">
    <clipPath
       id="clip0_237_340">
      <rect
         width="1440"
         height="801"
         fill="#ffffff"
         id="rect12"
         x="0"
         y="0" />
    </clipPath>
  </defs>
</svg>
