<?xml version="1.0" encoding="UTF-8" standalone="no"?>
<svg
   width="2603"
   height="80"
   viewBox="0 0 2603 80"
   fill="none"
   version="1.1"
   id="svg3"
   sodipodi:docname="stroke_top.svg"
   inkscape:version="1.3.2 (091e20e, 2023-11-25, custom)"
   xmlns:inkscape="http://www.inkscape.org/namespaces/inkscape"
   xmlns:sodipodi="http://sodipodi.sourceforge.net/DTD/sodipodi-0.dtd"
   xmlns="http://www.w3.org/2000/svg"
   xmlns:svg="http://www.w3.org/2000/svg">
  <defs
     id="defs3">
    <inkscape:path-effect
       effect="fillet_chamfer"
       id="path-effect2"
       is_visible="true"
       lpeversion="1"
       nodesatellites_param="F,0,0,1,0,0,0,1 @ F,0,0,1,0,0,0,1 @ F,0,0,1,0,0,0,1 @ F,0,0,1,0,0,0,1 @ F,0,0,1,0,0,0,1 @ F,0,0,1,0,0,0,1 | F,0,0,1,0,0,0,1 @ F,0,0,1,0,0,0,1 @ F,0,0,1,0,0,0,1 @ F,0,0,1,0,0,0,1 @ F,0,0,1,0,0,0,1 @ F,0,0,1,0,0,0,1 | F,0,0,1,0,0,0,1 @ F,0,0,1,0,0,0,1 @ F,0,0,1,0,0,0,1 @ F,0,0,1,0,0,0,1 @ F,0,0,1,0,0,0,1 @ F,0,0,1,0,0,0,1 | F,0,0,1,0,0,0,1 @ F,0,0,1,0,0,0,1 @ F,0,0,1,0,0,0,1 @ F,0,0,1,0,0,0,1 @ F,0,0,1,0,0,0,1 @ F,0,0,1,0,0,0,1 | F,0,0,1,0,0,0,1 @ F,0,0,1,0,0,0,1 @ F,0,0,1,0,0,0,1 @ F,0,0,1,0,0,0,1 @ F,0,0,1,0,0,0,1 @ F,0,0,1,0,0,0,1 | F,0,0,1,0,0,0,1 @ F,0,0,1,0,0,0,1 @ F,0,0,1,0,0,0,1 @ F,0,0,1,0,0,0,1 @ F,0,0,1,0,0,0,1 @ F,0,0,1,0,0,0,1 | F,0,0,1,0,0,0,1 @ F,0,0,1,0,0,0,1 @ F,0,0,1,0,0,0,1 @ F,0,0,1,0,0,0,1 @ F,0,0,1,0,0,0,1 @ F,0,0,1,0,0,0,1 | F,0,0,1,0,0,0,1 @ F,0,0,1,0,0,0,1 @ F,0,0,1,0,0,0,1 @ F,0,0,1,0,0,0,1 @ F,0,0,1,0,0,0,1 @ F,0,0,1,0,0,0,1 | F,0,0,1,0,0,0,1 @ F,0,0,1,0,0,0,1 @ F,0,0,1,0,0,0,1 @ F,0,0,1,0,0,0,1 @ F,0,0,1,0,0,0,1 @ F,0,0,1,0,0,0,1 | F,0,0,1,0,0,0,1 @ F,0,0,1,0,0,0,1 @ F,0,0,1,0,0,0,1 @ F,0,0,1,0,0,0,1 @ F,0,0,1,0,0,0,1 @ F,0,0,1,0,0,0,1 | F,0,0,1,0,0,0,1 @ F,0,0,1,0,0,0,1 @ F,0,0,1,0,0,0,1 @ F,0,0,1,0,0,0,1 @ F,0,0,1,0,0,0,1 @ F,0,0,1,0,0,0,1 | F,0,0,1,0,0,0,1 @ F,0,0,1,0,0,0,1 @ F,0,0,1,0,0,0,1 @ F,0,0,1,0,0,0,1 @ F,0,0,1,0,0,0,1 @ F,0,0,1,0,0,0,1 | F,0,0,1,0,0,0,1 @ F,0,0,1,0,0,0,1 @ F,0,0,1,0,0,0,1 @ F,0,0,1,0,0,0,1 @ F,0,0,1,0,0,0,1 @ F,0,0,1,0,0,0,1 | F,0,0,1,0,0,0,1 @ F,0,0,1,0,0,0,1 @ F,0,0,1,0,0,0,1 @ F,0,0,1,0,0,0,1 @ F,0,0,1,0,0,0,1 @ F,0,0,1,0,0,0,1 | F,0,0,1,0,0,0,1 @ F,0,0,1,0,0,0,1 @ F,0,0,1,0,0,0,1 @ F,0,0,1,0,0,0,1 @ F,0,0,1,0,0,0,1 @ F,0,0,1,0,0,0,1 | F,0,0,1,0,0,0,1 @ F,0,0,1,0,0,0,1 @ F,0,0,1,0,0,0,1 @ F,0,0,1,0,0,0,1 @ F,0,0,1,0,0,0,1 @ F,0,0,1,0,0,0,1 | F,0,0,1,0,0,0,1 @ F,0,0,1,0,0,0,1 @ F,0,0,1,0,0,0,1 @ F,0,0,1,0,8.834024,0,1 @ F,0,0,1,0,0,0,1 @ F,0,0,1,0,0,0,1"
       radius="0"
       unit="px"
       method="auto"
       mode="F"
       chamfer_steps="1"
       flexible="false"
       use_knot_distance="true"
       apply_no_radius="true"
       apply_with_radius="true"
       only_selected="false"
       hide_knots="false" />
    <inkscape:path-effect
       effect="fillet_chamfer"
       id="path-effect1"
       is_visible="true"
       lpeversion="1"
       nodesatellites_param="F,0,0,1,0,0,0,1 @ F,0,0,1,0,0,0,1 @ F,0,0,1,0,0,0,1 @ F,0,0,1,0,0,0,1 @ F,0,0,1,0,0,0,1 @ F,0,0,1,0,0,0,1 | F,0,0,1,0,0,0,1 @ F,0,0,1,0,0,0,1 @ F,0,0,1,0,0,0,1 @ F,0,0,1,0,0,0,1 @ F,0,0,1,0,0,0,1 @ F,0,0,1,0,0,0,1 | F,0,0,1,0,0,0,1 @ F,0,0,1,0,0,0,1 @ F,0,0,1,0,0,0,1 @ F,0,0,1,0,0,0,1 @ F,0,0,1,0,0,0,1 @ F,0,0,1,0,0,0,1 | F,0,0,1,0,0,0,1 @ F,0,0,1,0,0,0,1 @ F,0,0,1,0,0,0,1 @ F,0,0,1,0,0,0,1 @ F,0,0,1,0,0,0,1 @ F,0,0,1,0,0,0,1 | F,0,0,1,0,0,0,1 @ F,0,0,1,0,0,0,1 @ F,0,0,1,0,0,0,1 @ F,0,0,1,0,0,0,1 @ F,0,0,1,0,0,0,1 @ F,0,0,1,0,0,0,1 | F,0,0,1,0,0,0,1 @ F,0,0,1,0,0,0,1 @ F,0,0,1,0,0,0,1 @ F,0,0,1,0,0,0,1 @ F,0,0,1,0,0,0,1 @ F,0,0,1,0,0,0,1 | F,0,0,1,0,0,0,1 @ F,0,0,1,0,0,0,1 @ F,0,0,1,0,0,0,1 @ F,0,0,1,0,0,0,1 @ F,0,0,1,0,0,0,1 @ F,0,0,1,0,0,0,1 | F,0,0,1,0,0,0,1 @ F,0,0,1,0,0,0,1 @ F,0,0,1,0,0,0,1 @ F,0,0,1,0,0,0,1 @ F,0,0,1,0,0,0,1 @ F,0,0,1,0,0,0,1 | F,0,0,1,0,0,0,1 @ F,0,0,1,0,0,0,1 @ F,0,0,1,0,0,0,1 @ F,0,0,1,0,0,0,1 @ F,0,0,1,0,0,0,1 @ F,0,0,1,0,0,0,1 | F,0,0,1,0,0,0,1 @ F,0,0,1,0,0,0,1 @ F,0,0,1,0,0,0,1 @ F,0,0,1,0,0,0,1 @ F,0,0,1,0,0,0,1 @ F,0,0,1,0,0,0,1 | F,0,0,1,0,0,0,1 @ F,0,0,1,0,0,0,1 @ F,0,0,1,0,0,0,1 @ F,0,0,1,0,0,0,1 @ F,0,0,1,0,0,0,1 @ F,0,0,1,0,0,0,1 | F,0,0,1,0,0,0,1 @ F,0,0,1,0,0,0,1 @ F,0,0,1,0,0,0,1 @ F,0,0,1,0,0,0,1 @ F,0,0,1,0,0,0,1 @ F,0,0,1,0,0,0,1 | F,0,0,1,0,0,0,1 @ F,0,0,1,0,0,0,1 @ F,0,0,1,0,0,0,1 @ F,0,0,1,0,0,0,1 @ F,0,0,1,0,0,0,1 @ F,0,0,1,0,0,0,1 | F,0,0,1,0,0,0,1 @ F,0,0,1,0,0,0,1 @ F,0,0,1,0,0,0,1 @ F,0,0,1,0,0,0,1 @ F,0,0,1,0,0,0,1 @ F,0,0,1,0,0,0,1 | F,0,0,1,0,0,0,1 @ F,0,0,1,0,0,0,1 @ F,0,0,1,0,0,0,1 @ F,0,0,1,0,0,0,1 @ F,0,0,1,0,0,0,1 @ F,0,0,1,0,0,0,1 | F,0,0,1,0,0,0,1 @ F,0,0,1,0,0,0,1 @ F,0,0,1,0,0,0,1 @ F,0,0,1,0,0,0,1 @ F,0,0,1,0,0,0,1 @ F,0,0,1,0,0,0,1 | F,0,0,1,0,0,0,1 @ F,0,0,1,0,0,0,1 @ F,0,0,1,0,15.52181,0,1 @ F,0,0,1,0,0,0,1 @ F,0,0,1,0,0,0,1 @ F,0,0,1,0,0,0,1"
       radius="0"
       unit="px"
       method="auto"
       mode="F"
       chamfer_steps="1"
       flexible="false"
       use_knot_distance="true"
       apply_no_radius="true"
       apply_with_radius="true"
       only_selected="false"
       hide_knots="false" />
  </defs>
  <sodipodi:namedview
     id="namedview3"
     pagecolor="#ffffff"
     bordercolor="#000000"
     borderopacity="0.25"
     inkscape:showpageshadow="2"
     inkscape:pageopacity="0.0"
     inkscape:pagecheckerboard="0"
     inkscape:deskcolor="#d1d1d1"
     inkscape:zoom="0.6968882"
     inkscape:cx="1183.1166"
     inkscape:cy="-111.20866"
     inkscape:window-width="1920"
     inkscape:window-height="1001"
     inkscape:window-x="-9"
     inkscape:window-y="-9"
     inkscape:window-maximized="1"
     inkscape:current-layer="svg3" />
  <path
     d="M 0.07627853,34 H 2603.2107 V 80 H 0.07627853 Z"
     fill="#83965f"
     id="path1"
     style="stroke-width:1.00409" />
  <path
     d="m -1.699944,33.5769 0.300049,19.9978 C 23.6589,53.1987 70.759,55.8125 95.9317,61.4467 L 100.3,41.9296 104.668,22.4124 C 76.5077,16.1095 26.2747,13.155 -2,13.5792 Z M 100.3,41.9296 95.9317,61.4467 c 30.7293,6.8779 81.4373,4.2556 111.6193,-7.4866 L 200.3,35.321 193.049,16.6818 c -23.151,9.0064 -65.777,10.7898 -88.381,5.7306 z m 100,-6.6086 7.251,18.6391 c 23.828,-9.2696 57.212,-12.3684 80.421,-9.6481 L 290.3,24.448 292.628,4.58396 C 262.504,1.05306 222.555,5.20294 193.049,16.6818 Z m 90,-10.873 -2.328,19.864 c 26.038,3.0519 52.089,7.3565 78.156,12.9167 l 4.172,-19.5599 4.172,-19.56 C 347.205,12.2926 319.924,7.78324 292.628,4.58396 Z m 80,13.2208 -4.172,19.5599 c 29.218,6.2326 58.533,6.6634 87.795,1.273 L 450.3,38.8327 446.677,19.1636 c -24.072,4.4343 -48.09,4.0892 -72.205,-1.0548 z m 80,1.1639 3.623,19.669 c 23.715,-4.3686 47.4,-3.4371 71.266,2.8713 l 5.111,-19.336 5.111,-19.3359 c -29.467,-7.7888 -59.116,-8.9936 -88.734,-3.5375 z m 80,3.2043 -5.111,19.336 c 29.512,7.8007 59.207,8.9071 88.861,3.2457 L 610.3,44.9735 606.55,25.3283 c -23.679,4.5205 -47.318,3.6692 -71.139,-2.6272 z m 80,2.9365 3.75,19.6452 c 27.235,-5.1994 54.454,-11.6188 81.656,-19.2549 L 690.3,26.1082 684.894,6.85248 C 658.763,14.1883 632.648,20.3458 606.55,25.3283 Z m 80,-18.8653 5.406,19.2556 c 23.446,-6.582 46.677,-7.0945 70.012,-1.6025 L 770.3,24.2932 774.882,4.82502 c -29.998,-7.05998 -60.101,-6.36241 -89.988,2.02746 z m 80,-1.815 -4.582,19.4681 c 28.604,6.7319 57.317,9.0524 86.068,6.9101 L 850.3,30.7267 848.814,10.782 c -24.582,1.8316 -49.203,-0.1369 -73.932,-5.95698 z m 80,6.4335 1.486,19.9447 c 26.794,-1.9964 53.588,-4.2507 80.381,-6.763 L 930.3,23.9957 928.433,4.08302 c -26.54,2.48855 -53.08,4.72154 -79.619,6.69898 z m 80,-6.731 1.867,19.9127 c 25.825,-2.4215 51.642,-3.1953 77.453,-2.3226 l 0.68,-19.9886 0.68,-19.9886 C 983.457,0.678367 955.941,1.50365 928.433,4.08302 Z m 80,-2.3985 -0.68,19.9886 c 26.46,0.8944 52.92,2.2011 79.38,3.92 l 1.3,-19.958 1.3,-19.95793 C 1064.72,3.84416 1037.85,2.51705 1010.98,1.6086 Z m 80,3.9506 -1.3,19.958 c 25.6,1.6626 51.22,5.3903 76.89,11.196 l 4.41,-19.5071 4.41,-19.5072 C 1147.04,11.4287 1119.34,7.39187 1091.6,5.58987 Z m 80,11.6469 -4.41,19.5071 c 29.31,6.6303 58.73,7.1983 88.11,1.675 l -3.7,-19.6555 -3.7,-19.6555 c -23.96,4.5057 -47.86,4.056 -71.89,-1.3783 z m 80,1.5266 3.7,19.6555 c 24.84,-4.6712 86.53,-2.3846 111.3,0 l -35,-23.3264 35,-15.9846 c -28.57,-2.75 -90.2,-5.3578 -118.7,0 z m 80,-3.6709 35,23.3264 c 27.82,2.6781 73.9021,-8.327338 101.7221,-10.496338 l 27.3615,0.444357 c 4.8783,0.07922 13.0014,-2.887197 11.6236,-6.764224 -3.2434,-9.126431 -17.7207,-24.925333 -20.5004,-34.803265 -25.51,1.9886 -94.6968,14.76477 -120.2068,12.30847 z"
     fill="#ffffff"
     id="path2"
     sodipodi:nodetypes="ccccccccccccccccccccccccccccccccccccccccccccccccccccccccccccccccccccccccccccccccccccccccccccccccccccccccccccccccccccccc"
     inkscape:path-effect="#path-effect2"
     inkscape:original-d="m -1.699944,33.5769 0.300049,19.9978 C 23.6589,53.1987 70.759,55.8125 95.9317,61.4467 L 100.3,41.9296 104.668,22.4124 C 76.5077,16.1095 26.2747,13.155 -2,13.5792 Z M 100.3,41.9296 95.9317,61.4467 c 30.7293,6.8779 81.4373,4.2556 111.6193,-7.4866 L 200.3,35.321 193.049,16.6818 c -23.151,9.0064 -65.777,10.7898 -88.381,5.7306 z m 100,-6.6086 7.251,18.6391 c 23.828,-9.2696 57.212,-12.3684 80.421,-9.6481 L 290.3,24.448 292.628,4.58396 C 262.504,1.05306 222.555,5.20294 193.049,16.6818 Z m 90,-10.873 -2.328,19.864 c 26.038,3.0519 52.089,7.3565 78.156,12.9167 l 4.172,-19.5599 4.172,-19.56 C 347.205,12.2926 319.924,7.78324 292.628,4.58396 Z m 80,13.2208 -4.172,19.5599 c 29.218,6.2326 58.533,6.6634 87.795,1.273 L 450.3,38.8327 446.677,19.1636 c -24.072,4.4343 -48.09,4.0892 -72.205,-1.0548 z m 80,1.1639 3.623,19.669 c 23.715,-4.3686 47.4,-3.4371 71.266,2.8713 l 5.111,-19.336 5.111,-19.3359 c -29.467,-7.7888 -59.116,-8.9936 -88.734,-3.5375 z m 80,3.2043 -5.111,19.336 c 29.512,7.8007 59.207,8.9071 88.861,3.2457 L 610.3,44.9735 606.55,25.3283 c -23.679,4.5205 -47.318,3.6692 -71.139,-2.6272 z m 80,2.9365 3.75,19.6452 c 27.235,-5.1994 54.454,-11.6188 81.656,-19.2549 L 690.3,26.1082 684.894,6.85248 C 658.763,14.1883 632.648,20.3458 606.55,25.3283 Z m 80,-18.8653 5.406,19.2556 c 23.446,-6.582 46.677,-7.0945 70.012,-1.6025 L 770.3,24.2932 774.882,4.82502 c -29.998,-7.05998 -60.101,-6.36241 -89.988,2.02746 z m 80,-1.815 -4.582,19.4681 c 28.604,6.7319 57.317,9.0524 86.068,6.9101 L 850.3,30.7267 848.814,10.782 c -24.582,1.8316 -49.203,-0.1369 -73.932,-5.95698 z m 80,6.4335 1.486,19.9447 c 26.794,-1.9964 53.588,-4.2507 80.381,-6.763 L 930.3,23.9957 928.433,4.08302 c -26.54,2.48855 -53.08,4.72154 -79.619,6.69898 z m 80,-6.731 1.867,19.9127 c 25.825,-2.4215 51.642,-3.1953 77.453,-2.3226 l 0.68,-19.9886 0.68,-19.9886 C 983.457,0.678367 955.941,1.50365 928.433,4.08302 Z m 80,-2.3985 -0.68,19.9886 c 26.46,0.8944 52.92,2.2011 79.38,3.92 l 1.3,-19.958 1.3,-19.95793 C 1064.72,3.84416 1037.85,2.51705 1010.98,1.6086 Z m 80,3.9506 -1.3,19.958 c 25.6,1.6626 51.22,5.3903 76.89,11.196 l 4.41,-19.5071 4.41,-19.5072 C 1147.04,11.4287 1119.34,7.39187 1091.6,5.58987 Z m 80,11.6469 -4.41,19.5071 c 29.31,6.6303 58.73,7.1983 88.11,1.675 l -3.7,-19.6555 -3.7,-19.6555 c -23.96,4.5057 -47.86,4.056 -71.89,-1.3783 z m 80,1.5266 3.7,19.6555 c 24.84,-4.6712 86.53,-2.3846 111.3,0 l -35,-23.3264 35,-15.9846 c -28.57,-2.75 -90.2,-5.3578 -118.7,0 z m 80,-3.6709 35,23.3264 c 27.82,2.6781 73.9021,-8.327338 101.7221,-10.496338 l 36.1944,0.587804 C 1515.974,45.789655 1489.3807,20.523573 1485.5068,6.75733 1459.9968,8.74593 1390.81,21.5221 1365.3,19.0658 Z" />
  <path
     d="m 1478.72,46.4853 2.33,-19.864 2.33,-19.86397 c 27.29,3.19928 54.57,7.70857 81.84,13.52477 24.12,5.144 48.13,5.4891 72.21,1.0548 29.61,-5.4561 59.26,-4.2513 88.73,3.5375 23.82,6.2964 47.46,7.1477 71.14,2.6272 26.1,-4.9825 52.21,-11.14 78.34,-18.47575 29.89,-8.389871 59.99,-9.0874426 89.99,-2.02746 24.73,5.82001 49.35,7.78851 73.93,5.95691 26.54,-1.9774 53.08,-4.21036 79.62,-6.69891 27.51,-2.57937 55.03,-3.40465 82.55,-2.47442 26.87,0.90845 53.74,2.23556 80.62,3.98127 27.74,1.802 55.44,5.83876 83.11,12.09756 24.03,5.4343 47.93,5.884 71.89,1.3783 28.5,-5.3578 57.05,-6.6733 85.62,-3.9233 25.51,2.4563 55.3249,6.097707 80.8349,4.109107 l -0.4231,18.504549 1.0119,18.325182 c -27.82,2.169 -57.4437,1.555162 -85.2637,-1.122938 -24.77,-2.3846 -49.54,-1.2528 -74.38,3.4184 -29.38,5.5233 -58.8,4.9553 -88.11,-1.675 -25.67,-5.8057 -51.29,-9.5334 -76.89,-11.196 -26.46,-1.7189 -52.92,-3.0256 -79.38,-3.92 -25.81,-0.8727 -51.63,-0.0989 -77.45,2.3226 -26.8,2.5123 -53.59,4.7666 -80.38,6.763 -28.75,2.1423 -57.47,-0.1782 -86.07,-6.9101 -23.34,-5.492 -46.57,-4.9795 -70.01,1.6025 -27.21,7.6361 -54.43,14.0555 -81.66,19.2549 -29.65,5.6614 -59.35,4.555 -88.86,-3.2457 -23.87,-6.3084 -47.55,-7.2399 -71.27,-2.8713 -29.26,5.3904 -58.57,4.9596 -87.79,-1.273 -26.07,-5.5602 -52.12,-9.8648 -78.16,-12.9167 z"
     fill="#ffffff"
     id="path3"
     sodipodi:nodetypes="ccccccscsssssccccccsccsscsccscccc" />
</svg>
