<svg width="1440" height="200" viewBox="0 0 1440 200" fill="none" xmlns="http://www.w3.org/2000/svg">
<path d="M0 0H1440V67H0V0Z" fill="#F7F8F9"/>
<path d="M862.501 0C853.308 65.7821 796.818 116.409 728.503 116.409H702.521C634.206 116.409 577.716 65.782 568.523 0H862.501Z" fill="#83965F"/>
<g filter="url(#filter0_d_84_792)">
<path d="M871.195 28C868.647 106.894 808.097 173.91 727.382 182.587C646.668 191.263 573.257 138.646 554 62.0958L871.195 28Z" fill="#4F5139"/>
</g>
<g filter="url(#filter1_d_84_792)">
<path d="M286.707 -161.315V100.107L154.066 135.945V-161.315H286.707Z" fill="#8D5F73"/>
<path d="M1285.93 -161.315V100.107L1153.29 135.945V-161.315H1285.93Z" fill="#8D5F73"/>
<path d="M89.6407 -202V59.4217L-43 95.2599V-202H89.6407Z" fill="#41342C"/>
<path d="M1088.87 -161.315V100.107L956.227 135.945V-161.315H1088.87Z" fill="#41342C"/>
<path d="M483.773 -161.315V100.107L351.132 135.945V-161.315H483.773Z" fill="#41342C"/>
<path d="M1483 -202V59.4217L1350.36 95.2599V-202H1483Z" fill="#41342C"/>
</g>
<g filter="url(#filter2_d_84_792)">
<path d="M682.972 145.455C682.557 145.401 682.242 145.247 682.025 144.991C681.815 144.764 681.675 144.505 681.604 144.213C681.547 143.98 681.519 143.802 681.52 143.678C681.466 144.216 681.118 144.563 680.477 144.719L657.479 150.321C657.013 150.435 656.624 150.36 656.313 150.096C656.038 149.854 655.865 149.588 655.794 149.296C655.701 148.917 655.74 148.568 655.909 148.249C656.108 147.923 656.411 147.71 656.819 147.611L679.816 142.009C680.312 141.888 680.715 141.96 681.027 142.223C681.338 142.487 681.507 142.801 681.534 143.165C681.469 141.884 681.369 140.395 681.233 138.699C681.12 136.967 680.964 135.183 680.764 133.348C680.557 131.484 680.32 129.689 680.054 127.963C679.788 126.237 679.495 124.718 679.176 123.407C679.098 123.086 679.027 122.795 678.963 122.532C678.892 122.241 678.81 121.968 678.717 121.712C677.802 118.847 676.64 116.799 675.228 115.568C673.817 114.337 672.1 113.69 670.078 113.627C668.055 113.564 665.645 113.873 662.847 114.555C661.389 114.91 659.746 115.388 657.916 115.988C656.108 116.552 654.314 117.174 652.535 117.854C650.748 118.506 649.129 119.147 647.677 119.779C649.14 125.783 650.558 131.351 651.931 136.481C653.333 141.605 654.631 146.106 655.822 149.984C655.987 150.407 655.941 150.789 655.684 151.129C655.457 151.463 655.197 151.665 654.906 151.736C654.527 151.828 654.163 151.793 653.815 151.631C653.467 151.469 653.246 151.198 653.154 150.819C651.835 146.416 650.42 141.435 648.911 135.874C647.424 130.277 645.9 124.272 644.338 117.859C644.231 117.422 644.284 117.07 644.497 116.802C644.703 116.505 644.962 116.302 645.276 116.195C646.063 116.003 646.639 116.28 647.006 117.024C648.545 116.371 649.906 115.808 651.087 115.335C652.269 114.862 653.374 114.454 654.402 114.111C655.423 113.739 656.454 113.41 657.496 113.126C658.561 112.805 659.745 112.47 661.05 112.121C663.731 111.468 666.099 111.046 668.152 110.854C670.205 110.663 672.015 110.809 673.584 111.291C675.146 111.744 676.501 112.618 677.65 113.913C678.829 115.201 679.869 117.001 680.772 119.313C680.951 119.794 681.126 120.323 681.297 120.898C681.468 121.474 681.632 122.083 681.788 122.724C682.292 124.794 682.715 127.099 683.056 129.64C683.427 132.175 683.717 134.698 683.927 137.209C684.138 139.721 684.273 141.988 684.334 144.011C684.353 144.47 684.205 144.815 683.891 145.046C683.606 145.269 683.299 145.406 682.972 145.455ZM653.603 134.407C653.136 134.52 652.751 134.46 652.447 134.225C652.172 133.983 651.999 133.717 651.928 133.425C651.842 133.076 651.884 132.741 652.054 132.422C652.245 132.067 652.545 131.839 652.953 131.74L676.868 125.914C677.335 125.8 677.706 125.865 677.981 126.106C678.285 126.341 678.476 126.619 678.554 126.939C678.639 127.289 678.583 127.627 678.384 127.953C678.215 128.272 677.926 128.482 677.518 128.581L653.603 134.407ZM714.212 139.003C713.862 139.088 713.51 139.035 713.154 138.843C712.835 138.674 712.626 138.385 712.527 137.977L710.887 131.244L704.853 132.714C704.387 132.828 704.001 132.767 703.697 132.532C703.386 132.269 703.195 131.991 703.124 131.7C703.038 131.35 703.077 131.001 703.239 130.652C703.43 130.297 703.745 130.066 704.182 129.96L710.216 128.49L707.063 115.548C705.519 116.943 703.938 118.502 702.32 120.224C700.731 121.939 699.192 123.734 697.703 125.609C696.208 127.456 694.807 129.31 693.5 131.172C693.324 131.462 693.076 131.646 692.755 131.724C692.347 131.824 691.962 131.763 691.599 131.543C691.259 131.286 691.049 130.997 690.971 130.677C690.879 130.298 690.958 129.923 691.207 129.554C692.903 127.134 694.509 124.983 696.027 123.1C697.537 121.188 699.105 119.386 700.731 117.693C702.378 115.964 704.233 114.2 706.296 112.4L705.636 109.69L687.885 114.014C687.477 114.113 687.11 114.064 686.783 113.865C686.457 113.667 686.244 113.363 686.145 112.955C685.925 112.052 686.281 111.486 687.214 111.259L704.965 106.935L703.122 99.3713C703.009 98.905 703.073 98.5343 703.315 98.2592C703.578 97.948 703.856 97.7568 704.148 97.6858C704.497 97.6006 704.832 97.6426 705.151 97.8119C705.499 97.9741 705.727 98.2738 705.833 98.711L707.676 106.275L723.809 102.345C724.217 102.245 724.584 102.295 724.91 102.493C725.229 102.663 725.439 102.951 725.538 103.359C725.63 103.738 725.566 104.109 725.346 104.471C725.147 104.798 724.859 105.007 724.48 105.099L708.347 109.029L709.209 112.571C709.238 112.564 709.322 112.59 709.46 112.649C709.62 112.671 710.016 112.776 710.648 112.961C711.272 113.118 712.297 113.393 713.72 113.788C715.137 114.153 717.102 114.678 719.616 115.362C722.151 116.01 725.417 116.867 729.412 117.932C729.964 118.168 730.296 118.519 730.41 118.985C730.481 119.277 730.476 119.51 730.395 119.684C730.188 120.228 729.851 120.557 729.385 120.671C729.151 120.728 728.919 120.723 728.686 120.656L709.955 115.631L712.926 127.83L719.353 126.264C719.82 126.15 720.194 126.229 720.476 126.5C720.787 126.764 720.979 127.041 721.05 127.333C721.135 127.683 721.096 128.032 720.934 128.38C720.765 128.699 720.462 128.912 720.024 129.018L713.597 130.584L715.237 137.317C715.351 137.783 715.287 138.154 715.045 138.429C714.81 138.733 714.533 138.925 714.212 139.003ZM751.283 126.823C749.184 127.334 747.194 127.402 745.311 127.027C743.429 126.652 741.709 125.928 740.151 124.857C738.622 123.778 737.321 122.427 736.246 120.806C735.165 119.155 734.379 117.324 733.889 115.312C733.236 112.631 733.117 110.113 733.531 107.758C733.946 105.403 734.802 103.28 736.102 101.388C737.394 99.4679 739.066 97.8408 741.119 96.5071C743.194 95.1372 745.557 94.1291 748.21 93.483C750.833 92.844 753.363 92.6446 755.799 92.8849C758.228 93.096 760.447 93.7133 762.456 94.7368C764.488 95.7241 766.189 97.0696 767.562 98.7732C768.963 100.47 769.944 102.469 770.505 104.772C770.867 106.259 771.028 107.871 770.989 109.61C771.001 109.916 770.927 110.181 770.766 110.405C770.597 110.601 770.396 110.727 770.163 110.784C769.813 110.869 769.461 110.816 769.105 110.625C768.743 110.404 768.516 110.104 768.423 109.725C768.381 109.551 768.363 109.416 768.371 109.321C768.401 107.924 768.267 106.614 767.969 105.39C767.486 103.408 766.609 101.707 765.337 100.288C764.087 98.8323 762.529 97.6987 760.664 96.887C758.821 96.0392 756.776 95.5648 754.528 95.4639C756.037 97.3503 757.4 99.4577 758.616 101.786C759.86 104.107 760.756 106.39 761.303 108.635C762.503 113.561 762.3 117.547 760.696 120.593C759.113 123.603 755.976 125.68 751.283 126.823ZM750.665 124.287C754.309 123.4 756.818 121.785 758.192 119.443C759.596 117.094 759.909 114.193 759.129 110.739C758.447 107.941 757.412 105.213 756.024 102.556C754.658 99.8631 753.013 97.5466 751.089 95.6068C750.252 95.7182 749.44 95.8697 748.653 96.0614C745.825 96.7502 743.377 97.9178 741.308 99.5643C739.261 101.174 737.757 103.177 736.797 105.573C735.858 107.932 735.624 110.582 736.094 113.525C736.447 115.353 737.055 117.027 737.919 118.546C738.812 120.057 739.907 121.319 741.203 122.331C742.5 123.343 743.947 124.025 745.546 124.376C747.181 124.75 748.887 124.72 750.665 124.287ZM782.908 123.473C782.428 123.528 782.032 123.424 781.721 123.16C781.438 122.889 781.255 122.579 781.17 122.229C780.126 116.678 779.276 111.158 778.617 105.667C777.981 100.141 777.632 94.7144 777.57 89.3879C777.22 89.4731 776.882 89.4165 776.556 89.2181C776.222 88.9905 776.01 88.6872 775.917 88.3083C775.818 87.9002 775.849 87.5221 776.011 87.1738C776.174 86.8255 776.488 86.5946 776.954 86.481L792.694 82.6468L791.576 78.0561C791.455 77.5606 791.515 77.1753 791.757 76.9003C792.021 76.589 792.313 76.3943 792.634 76.3162C793.042 76.2168 793.427 76.2773 793.79 76.4978C794.145 76.6891 794.369 76.9742 794.461 77.3532L795.58 81.9439L811.013 78.1843C811.45 78.0778 811.836 78.1384 812.169 78.3659C812.532 78.5864 812.762 78.9007 812.862 79.3087C812.961 79.7168 812.897 80.0875 812.67 80.4208C812.471 80.7471 812.153 80.9634 811.716 81.0699L780.499 88.6743C780.589 94.2412 780.956 99.7405 781.6 105.172C782.237 110.575 783.091 116.11 784.163 121.778C784.288 122.673 783.87 123.238 782.908 123.473ZM803.457 118.467C800.514 119.184 797.907 119.51 795.637 119.446C793.403 119.403 791.548 118.821 790.07 117.699C788.6 116.606 787.57 114.849 786.981 112.43C786.505 110.477 786.355 108.847 786.53 107.538C786.727 106.193 787.243 105.079 788.078 104.197C788.913 103.314 790.056 102.557 791.508 101.925C792.989 101.287 794.768 100.668 796.845 100.069L793.863 87.8273C793.636 86.8945 793.989 86.3146 794.922 86.0874C795.33 85.988 795.697 86.0375 796.023 86.2359C796.378 86.4272 796.606 86.7269 796.705 87.135L797.781 91.5509L809.673 88.654C810.169 88.5333 810.568 88.5902 810.873 88.8249C811.17 89.0304 811.368 89.3372 811.467 89.7453C811.581 90.2117 811.506 90.6005 811.242 90.9118C810.978 91.2231 810.686 91.4178 810.365 91.4959L798.473 94.3928L799.687 99.377C802.515 98.6883 804.976 98.3357 807.072 98.3193C809.167 98.3028 810.903 98.8372 812.279 99.9223C813.655 101.008 814.666 102.876 815.312 105.529C815.823 107.627 815.882 109.389 815.488 110.812C815.123 112.229 814.391 113.411 813.294 114.357C812.197 115.304 810.799 116.092 809.1 116.722C807.437 117.374 805.556 117.956 803.457 118.467ZM802.765 115.625C805.301 115.007 807.364 114.35 808.955 113.654C810.574 112.951 811.675 112.019 812.257 110.858C812.875 109.72 812.946 108.174 812.47 106.221C811.973 104.181 811.207 102.808 810.17 102.103C809.127 101.369 807.732 101.092 805.984 101.27C804.259 101.413 802.114 101.796 799.549 102.421C797.713 102.869 796.105 103.306 794.728 103.735C793.35 104.163 792.23 104.698 791.367 105.341C790.498 105.954 789.925 106.773 789.65 107.797C789.367 108.792 789.425 110.106 789.822 111.738C790.27 113.574 791.059 114.849 792.19 115.561C793.357 116.296 794.828 116.632 796.604 116.57C798.38 116.508 800.433 116.193 802.765 115.625Z" fill="#83965F"/>
</g>
<g filter="url(#filter3_d_84_792)">
<path d="M642.805 111.817V109.252H622.195V111.367L616.93 111.817L616.12 72.9824H622.195V74.6924L648.88 72.9824L648.07 111.367L642.805 111.817ZM642.805 78.8324H622.195V89.5874L642.805 88.1024V78.8324ZM642.805 93.6824H622.195V105.112L642.805 103.672V93.6824ZM693.225 105.067C692.385 104.347 691.545 103.582 690.705 102.772C689.865 101.932 689.01 101.047 688.14 100.117V104.212H679.815L679.68 110.917L674.595 111.817V104.212H666.72L665.82 100.567L674.595 99.8024V89.4524C673.065 91.5524 671.52 93.4724 669.96 95.2124C668.4 96.9524 666.735 98.6324 664.965 100.252C663.195 101.872 661.2 103.567 658.98 105.337L657.045 102.727C658.995 100.837 660.75 99.0074 662.31 97.2374C663.9 95.4674 665.385 93.5924 666.765 91.6124C668.175 89.6324 669.585 87.3824 670.995 84.8624H658.8L657.9 80.9024L674.595 80.0474V71.3624L680.58 72.2624L680.4 79.7324L696.6 78.9224V84.8624H680.265V86.2574C683.445 89.0174 686.43 91.4474 689.22 93.5474C692.04 95.6474 694.815 97.5374 697.545 99.2174L693.225 105.067ZM686.835 98.7224C684.705 96.3824 682.47 93.6524 680.13 90.5324L679.95 99.3074L686.835 98.7224ZM730.01 106.732C731.69 104.512 733.115 102.217 734.285 99.8474C735.455 97.4474 736.04 94.9574 736.04 92.3774C736.04 90.0974 735.53 88.1924 734.51 86.6624C733.49 85.1024 732.065 83.9174 730.235 83.1074C728.435 82.2974 726.305 81.8924 723.845 81.8924C721.895 81.8924 719.99 82.2974 718.13 83.1074C716.27 83.9174 714.59 85.0124 713.09 86.3924C711.62 87.7724 710.435 89.3474 709.535 91.1174C708.665 92.8874 708.23 94.7474 708.23 96.6974C708.23 97.9574 708.455 98.8874 708.905 99.4874C709.355 100.057 709.985 100.342 710.795 100.342C711.335 100.342 711.905 100.237 712.505 100.027C713.855 99.5474 715.295 98.7224 716.825 97.5524C718.385 96.3524 719.93 94.9424 721.46 93.3224C723.02 91.6724 724.445 89.9474 725.735 88.1474C727.025 86.3174 728.075 84.5474 728.885 82.8374L732.215 85.4474C731.315 87.5174 730.16 89.6474 728.75 91.8374C727.37 93.9974 725.81 96.0674 724.07 98.0474C722.36 99.9974 720.53 101.707 718.58 103.177C716.66 104.617 714.695 105.667 712.685 106.327C711.485 106.717 710.345 106.912 709.265 106.912C706.895 106.912 705.11 106.012 703.91 104.212C702.71 102.412 702.11 100.117 702.11 97.3274C702.11 95.1974 702.5 93.1574 703.28 91.2074C704.09 89.2274 705.2 87.4124 706.61 85.7624C708.02 84.1124 709.655 82.6874 711.515 81.4874C713.375 80.2574 715.37 79.3124 717.5 78.6524C719.63 77.9624 721.79 77.6174 723.98 77.6174C727.76 77.6174 731.015 78.2024 733.745 79.3724C736.475 80.5124 738.575 82.1474 740.045 84.2774C741.515 86.4074 742.25 88.9424 742.25 91.8824C742.25 93.8624 741.875 95.8574 741.125 97.8674C740.405 99.8474 739.415 101.752 738.155 103.582C736.895 105.382 735.44 106.987 733.79 108.397L730.01 106.732ZM754.69 81.0374V86.7974C754.69 89.2874 754.48 92.0024 754.06 94.9424C753.64 97.8824 753.01 100.822 752.17 103.762C751.33 106.672 750.265 109.357 748.975 111.817L746.545 110.512C747.205 107.902 747.7 105.352 748.03 102.862C748.39 100.372 748.63 97.8074 748.75 95.1674C748.9 92.4974 748.975 89.6324 748.975 86.5724V75.2774H754.69V76.8524L765.76 76.3124C765.16 75.6524 764.86 74.8874 764.86 74.0174C764.86 73.0874 765.175 72.3074 765.805 71.6774C766.465 71.0174 767.26 70.6874 768.19 70.6874C769.12 70.6874 769.9 71.0174 770.53 71.6774C771.19 72.3074 771.52 73.0874 771.52 74.0174C771.52 74.7674 771.295 75.4424 770.845 76.0424L786.46 75.2774V81.0374H754.69ZM777.82 111.817V109.522H761.26V111.367L756.4 111.817L755.59 93.9074H761.26V95.6174L765.895 95.2574V81.6674L771.565 82.3424L771.34 86.1224L784.885 84.5024V89.9924H771.115L770.845 94.8974L783.49 93.9074L782.68 111.367L777.82 111.817ZM777.82 99.5774H761.26V105.787L777.82 104.347V99.5774Z" fill="#F7CF89"/>
</g>
<defs>
<filter id="filter0_d_84_792" x="550" y="28" width="325.195" height="163.521" filterUnits="userSpaceOnUse" color-interpolation-filters="sRGB">
<feFlood flood-opacity="0" result="BackgroundImageFix"/>
<feColorMatrix in="SourceAlpha" type="matrix" values="0 0 0 0 0 0 0 0 0 0 0 0 0 0 0 0 0 0 127 0" result="hardAlpha"/>
<feOffset dy="4"/>
<feGaussianBlur stdDeviation="2"/>
<feComposite in2="hardAlpha" operator="out"/>
<feColorMatrix type="matrix" values="0 0 0 0 0 0 0 0 0 0 0 0 0 0 0 0 0 0 0.25 0"/>
<feBlend mode="normal" in2="BackgroundImageFix" result="effect1_dropShadow_84_792"/>
<feBlend mode="normal" in="SourceGraphic" in2="effect1_dropShadow_84_792" result="shape"/>
</filter>
<filter id="filter1_d_84_792" x="-43" y="-202" width="1526" height="345.945" filterUnits="userSpaceOnUse" color-interpolation-filters="sRGB">
<feFlood flood-opacity="0" result="BackgroundImageFix"/>
<feColorMatrix in="SourceAlpha" type="matrix" values="0 0 0 0 0 0 0 0 0 0 0 0 0 0 0 0 0 0 127 0" result="hardAlpha"/>
<feOffset dy="8"/>
<feComposite in2="hardAlpha" operator="out"/>
<feColorMatrix type="matrix" values="0 0 0 0 0.968627 0 0 0 0 0.972549 0 0 0 0 0.976471 0 0 0 1 0"/>
<feBlend mode="normal" in2="BackgroundImageFix" result="effect1_dropShadow_84_792"/>
<feBlend mode="normal" in="SourceGraphic" in2="effect1_dropShadow_84_792" result="shape"/>
</filter>
<filter id="filter2_d_84_792" x="639.049" y="71.6575" width="186.29" height="91.3652" filterUnits="userSpaceOnUse" color-interpolation-filters="sRGB">
<feFlood flood-opacity="0" result="BackgroundImageFix"/>
<feColorMatrix in="SourceAlpha" type="matrix" values="0 0 0 0 0 0 0 0 0 0 0 0 0 0 0 0 0 0 127 0" result="hardAlpha"/>
<feOffset dy="4"/>
<feGaussianBlur stdDeviation="2"/>
<feComposite in2="hardAlpha" operator="out"/>
<feColorMatrix type="matrix" values="0 0 0 0 0 0 0 0 0 0 0 0 0 0 0 0 0 0 0.25 0"/>
<feBlend mode="normal" in2="BackgroundImageFix" result="effect1_dropShadow_84_792"/>
<feBlend mode="normal" in="SourceGraphic" in2="effect1_dropShadow_84_792" result="shape"/>
</filter>
<filter id="filter3_d_84_792" x="612.12" y="70.6874" width="178.34" height="49.13" filterUnits="userSpaceOnUse" color-interpolation-filters="sRGB">
<feFlood flood-opacity="0" result="BackgroundImageFix"/>
<feColorMatrix in="SourceAlpha" type="matrix" values="0 0 0 0 0 0 0 0 0 0 0 0 0 0 0 0 0 0 127 0" result="hardAlpha"/>
<feOffset dy="4"/>
<feGaussianBlur stdDeviation="2"/>
<feComposite in2="hardAlpha" operator="out"/>
<feColorMatrix type="matrix" values="0 0 0 0 0 0 0 0 0 0 0 0 0 0 0 0 0 0 0.25 0"/>
<feBlend mode="normal" in2="BackgroundImageFix" result="effect1_dropShadow_84_792"/>
<feBlend mode="normal" in="SourceGraphic" in2="effect1_dropShadow_84_792" result="shape"/>
</filter>
</defs>
</svg>
