<svg width="1440" height="801" viewBox="0 0 1440 801" fill="none" xmlns="http://www.w3.org/2000/svg">
<g clip-path="url(#clip0_237_318)">
<mask id="mask0_237_318" style="mask-type:luminance" maskUnits="userSpaceOnUse" x="-43" y="34" width="1526" height="733">
<path d="M-43 34.1771H1483V766.177H-43V34.1771Z" fill="white"/>
</mask>
<g mask="url(#mask0_237_318)">
<path d="M-43 34.1771H1483V766.177H-43V34.1771Z" fill="#83965F"/>
<path d="M548.438 480.686C552.864 482.151 555.278 486.913 553.844 491.349C552.436 495.701 547.83 498.153 543.433 496.891L-300.664 254.645C-314.997 250.532 -322.977 235.266 -318.172 221.149C-313.555 207.585 -298.867 200.279 -285.265 204.781L548.438 480.686Z" fill="#41342C"/>
<path d="M474.65 359.927C483.639 328.033 516.782 309.464 548.676 318.453L632.918 342.196C664.813 351.185 683.381 384.328 674.392 416.222L656.982 477.997C647.992 509.892 614.85 528.46 582.955 519.471L498.713 495.729C466.819 486.739 448.25 453.597 457.239 421.702L474.65 359.927Z" fill="white"/>
<path d="M671.714 374.54C675.574 377.154 676.6 382.394 674.012 386.271C671.472 390.076 666.373 391.182 662.486 388.77L-83.754 -74.1662C-96.4256 -82.0271 -99.9465 -98.8887 -91.4795 -111.164C-83.344 -122.958 -67.2214 -125.988 -55.3587 -117.953L671.714 374.54Z" fill="#41342C"/>
<path d="M449 616.177H1847V655.177L449 634.677V616.177Z" fill="#41342C"/>
<path d="M806 444.177H1847V483.177L806 462.677V444.177Z" fill="#41342C"/>
<path d="M1362 533.177C1354.75 580.08 1310.16 616.177 1256.25 616.177H1235.75C1181.83 616.177 1137.25 580.08 1130 533.177H1362Z" fill="#F7F8F9"/>
<path d="M1107 559.177C1102.03 591.387 1071.47 616.177 1034.53 616.177H1020.47C983.525 616.177 952.972 591.387 948 559.177H1107Z" fill="#F7F8F9"/>
<path d="M864 444.177H826V621.177H864V444.177Z" fill="#41342C"/>
<path d="M798 616.177V713.795L594 727.177V616.177H798Z" fill="#4F5139"/>
<path d="M1372 616.177V713.795L1168 727.177V616.177H1372Z" fill="#4F5139"/>
<path d="M1081 617.177V714.795L875 728.177V617.177H1081Z" fill="#F7CF89"/>
</g>
<path d="M-2.99984 33.5769L-2.69979 53.5747C22.359 53.1987 47.4592 55.8125 72.6319 61.4467L77.0002 41.9296L81.3685 22.4124C53.2079 16.1095 24.9748 13.155 -3.2999 13.5792L-2.99984 33.5769ZM77.0002 41.9296L72.6319 61.4467C103.361 68.3246 134.069 65.7023 164.251 53.9601L157 35.321L149.749 16.6818C126.598 25.6882 103.972 27.4716 81.3685 22.4124L77.0002 41.9296ZM157 35.321L164.251 53.9601C188.079 44.6905 211.463 41.5917 234.672 44.312L237 24.448L239.328 4.58396C209.204 1.05306 179.255 5.20294 149.749 16.6818L157 35.321ZM237 24.448L234.672 44.312C260.71 47.3639 286.761 51.6685 312.828 57.2287L317 37.6688L321.172 18.1088C293.905 12.2926 266.624 7.78324 239.328 4.58396L237 24.448ZM317 37.6688L312.828 57.2287C342.046 63.4613 371.361 63.8921 400.623 58.5017L397 38.8327L393.377 19.1636C369.305 23.5979 345.287 23.2528 321.172 18.1088L317 37.6688ZM397 38.8327L400.623 58.5017C424.338 54.1331 448.023 55.0646 471.889 61.373L477 42.037L482.111 22.7011C452.644 14.9123 422.995 13.7075 393.377 19.1636L397 38.8327ZM477 42.037L471.889 61.373C501.401 69.1737 531.096 70.2801 560.75 64.6187L557 44.9735L553.25 25.3283C529.571 29.8488 505.932 28.9975 482.111 22.7011L477 42.037ZM557 44.9735L560.75 64.6187C587.985 59.4193 615.204 52.9999 642.406 45.3638L637 26.1082L631.594 6.85248C605.463 14.1883 579.348 20.3458 553.25 25.3283L557 44.9735ZM637 26.1082L642.406 45.3638C665.852 38.7818 689.083 38.2693 712.418 43.7613L717 24.2932L721.582 4.82502C691.584 -2.23496 661.481 -1.53739 631.594 6.85248L637 26.1082ZM717 24.2932L712.418 43.7613C741.022 50.4932 769.735 52.8137 798.486 50.6714L797 30.7267L795.514 10.782C770.932 12.6136 746.311 10.6451 721.582 4.82502L717 24.2932ZM797 30.7267L798.486 50.6714C825.28 48.675 852.074 46.4207 878.867 43.9084L877 23.9957L875.133 4.08302C848.593 6.57157 822.053 8.80456 795.514 10.782L797 30.7267ZM877 23.9957L878.867 43.9084C904.692 41.4869 930.509 40.7131 956.324 41.5858L957 21.5972L957.676 1.60861C930.157 0.678376 902.641 1.50365 875.133 4.08302L877 23.9957ZM957 21.5972L956.324 41.5858C982.784 42.4802 1009.24 43.7869 1035.7 45.5058L1037 25.5478L1038.3 5.58987C1011.42 3.84416 984.55 2.51706 957.676 1.60861L957 21.5972ZM1037 25.5478L1035.7 45.5058C1061.3 47.1684 1086.92 50.8961 1112.59 56.7018L1117 37.1947L1121.41 17.6875C1093.74 11.4287 1066.04 7.39187 1038.3 5.58987L1037 25.5478ZM1117 37.1947L1112.59 56.7018C1141.9 63.3321 1171.32 63.9001 1200.7 58.3768L1197 38.7213L1193.3 19.0658C1169.34 23.5715 1145.44 23.1218 1121.41 17.6875L1117 37.1947ZM1197 38.7213L1200.7 58.3768C1225.54 53.7056 1250.31 52.5738 1275.08 54.9584L1277 35.0504L1278.92 15.1425C1250.35 12.3925 1221.8 13.708 1193.3 19.0658L1197 38.7213ZM1277 35.0504L1275.08 54.9584C1302.9 57.6365 1330.73 57.8916 1358.55 55.7226L1357 35.7831L1355.45 15.8436C1329.94 17.8322 1304.43 17.5988 1278.92 15.1425L1277 35.0504ZM1357 35.7831L1358.55 55.7226C1385.33 53.6356 1412.1 51.3324 1438.87 48.8132L1437 28.9012L1435.13 8.98911C1408.57 11.4883 1382.01 13.7732 1355.45 15.8436L1357 35.7831ZM1437 28.9012L1438.87 48.8132C1448.75 47.8836 1453.84 49.953 1456.71 52.2018C1459.75 54.5772 1463.41 59.5959 1465.57 70.5282L1485.19 66.6572L1504.81 62.7863C1501.51 46.0387 1494.41 30.9247 1481.38 20.7148C1468.19 10.3782 1451.91 7.40948 1435.13 8.98911L1437 28.9012ZM1485.19 66.6572L1465.57 70.5282C1470.72 96.6594 1472.57 122.157 1471.18 147.062L1491.15 148.177L1511.12 149.292C1512.7 120.864 1510.58 92.015 1504.81 62.7863L1485.19 66.6572ZM1491.15 148.177L1471.18 147.062C1469.6 175.281 1471.3 203.483 1476.25 231.639L1495.95 228.177L1515.64 224.715C1511.22 199.538 1509.71 174.407 1511.12 149.292L1491.15 148.177ZM1495.95 228.177L1476.25 231.639C1480.5 255.844 1480.2 280.001 1475.34 304.24L1494.94 308.177L1514.55 312.114C1520.4 283.019 1520.76 253.843 1515.64 224.715L1495.95 228.177ZM1494.94 308.177L1475.34 304.24C1470.06 330.539 1464 356.845 1457.18 383.157L1476.54 388.177L1495.9 393.197C1502.91 366.176 1509.13 339.149 1514.55 312.114L1494.94 308.177ZM1476.54 388.177L1457.18 383.157C1449.81 411.573 1446.47 440.104 1447.22 468.699L1467.21 468.177L1487.21 467.655C1486.56 442.917 1489.44 418.115 1495.9 393.197L1476.54 388.177ZM1467.21 468.177L1447.22 468.699C1447.98 497.665 1453.65 526.467 1464.08 555.036L1482.86 548.177L1501.65 541.318C1492.61 516.553 1487.84 492.023 1487.21 467.655L1467.21 468.177ZM1482.86 548.177L1464.08 555.036C1472.45 577.964 1473.49 600.437 1467.47 623.019L1486.79 628.177L1506.11 633.335C1514.32 602.584 1512.75 571.723 1501.65 541.318L1482.86 548.177ZM1486.79 628.177L1467.47 623.019C1459.91 651.319 1456.13 679.729 1456.17 708.208L1476.17 708.177L1496.17 708.146C1496.13 683.292 1499.43 658.369 1506.11 633.335L1486.79 628.177ZM1476.17 708.177L1456.17 708.208C1456.21 729.91 1449.21 739.693 1439.39 744.803L1448.62 762.546L1457.85 780.288C1484.85 766.24 1496.22 739.778 1496.17 708.146L1476.17 708.177ZM1448.62 762.546L1439.39 744.803C1425 752.286 1406.31 755.957 1382.25 754.453L1381 774.414L1379.75 794.375C1409.02 796.204 1435.41 791.963 1457.85 780.288L1448.62 762.546ZM1381 774.414L1382.25 754.453C1354.61 752.725 1326.97 753.014 1299.34 755.319L1301 775.25L1302.66 795.18C1328.36 793.037 1354.06 792.768 1379.75 794.375L1381 774.414ZM1301 775.25L1299.34 755.319C1274.38 757.401 1249.41 756.297 1224.39 751.991L1221 771.702L1217.61 791.412C1245.92 796.285 1274.29 797.547 1302.66 795.18L1301 775.25ZM1221 771.702L1224.39 751.991C1197.31 747.331 1170.23 743.546 1143.13 740.639L1141 760.525L1138.87 780.411C1165.11 783.227 1191.35 786.893 1217.61 791.412L1221 771.702ZM1141 760.525L1143.13 740.639C1114.48 737.565 1085.84 738.76 1057.26 744.201L1061 763.848L1064.74 783.495C1089.5 778.782 1114.18 777.762 1138.87 780.411L1141 760.525ZM1061 763.848L1057.26 744.201C1032.57 748.903 1007.94 749.807 983.314 746.938L981 766.804L978.686 786.67C1007.39 790.014 1036.1 788.948 1064.74 783.495L1061 763.848ZM981 766.804L983.314 746.938C956.046 743.761 928.77 741.838 901.49 741.17L901 761.164L900.51 781.158C926.563 781.796 952.621 783.633 978.686 786.67L981 766.804ZM901 761.164L901.49 741.17C873.189 740.477 844.926 743.222 816.735 749.375L821 768.915L825.265 788.455C850.407 782.967 875.478 780.545 900.51 781.158L901 761.164ZM821 768.915L816.735 749.375C791.051 754.982 765.404 758.559 739.785 760.118L741 780.081L742.215 800.044C769.93 798.357 797.616 794.491 825.265 788.455L821 768.915ZM741 780.081L739.785 760.118C715.464 761.598 691.062 758.88 666.489 751.867L661 771.099L655.511 790.331C684.271 798.539 713.203 801.809 742.215 800.044L741 780.081ZM661 771.099L666.489 751.867C636.826 743.401 606.937 742.094 577.087 748.05L581 767.664L584.913 787.277C608.397 782.591 631.841 783.575 655.511 790.331L661 771.099ZM581 767.664L577.087 748.05C553.299 752.796 529.574 752.299 505.707 746.519L501 765.957L496.293 785.396C525.76 792.532 555.368 793.172 584.913 787.277L581 767.664ZM501 765.957L505.707 746.519C475.69 739.25 445.553 739.815 415.627 748.162L421 767.426L426.373 786.691C449.78 780.163 472.977 779.749 496.293 785.396L501 765.957ZM421 767.426L415.627 748.162C392.771 754.536 370.094 754.085 347.104 746.716L341 765.762L334.896 784.808C365.239 794.533 395.895 795.191 426.373 786.691L421 767.426ZM341 765.762L347.104 746.716C316.349 736.859 285.306 737.125 254.613 747.467L261 766.42L267.387 785.373C290.028 777.744 312.317 777.571 334.896 784.808L341 765.762ZM261 766.42L254.613 747.467C231.548 755.24 208.847 756.079 186.028 750.152L181 769.51L175.972 788.868C206.486 796.793 237.119 795.573 267.387 785.373L261 766.42ZM181 769.51L186.028 750.152C157.224 742.671 128.274 740.149 99.2738 742.661L101 762.587L102.726 782.512C127.059 780.404 151.443 782.497 175.972 788.868L181 769.51ZM101 762.587L99.2738 742.661C73.9758 744.853 48.6818 744.44 23.3702 741.42L21.0002 761.279L18.6302 781.138C46.6519 784.482 74.6912 784.941 102.726 782.512L101 762.587ZM21.0002 761.279L23.3702 741.42C-0.929909 738.52 -6.83864 731.062 -8.42123 726.624L-27.2594 733.341L-46.0977 740.058C-36.6674 766.505 -10.4031 777.673 18.6302 781.138L21.0002 761.279ZM-27.2594 733.341L-8.42123 726.624C-12.8266 714.269 -15.5093 695.815 -15.4919 670.191L-35.4919 670.177L-55.4919 670.164C-55.5107 697.873 -52.7051 721.528 -46.0977 740.058L-27.2594 733.341ZM-35.4919 670.177L-15.4919 670.191C-15.4733 642.686 -17.1782 615.189 -20.6039 587.703L-40.4504 590.177L-60.2968 592.651C-57.0751 618.499 -55.4744 644.335 -55.4919 670.164L-35.4919 670.177ZM-40.4504 590.177L-20.6039 587.703C-23.7167 562.729 -23.6249 537.774 -20.3272 512.795L-40.1551 510.177L-59.9831 507.559C-63.7265 535.914 -63.8315 564.292 -60.2968 592.651L-40.4504 590.177ZM-40.1551 510.177L-20.3272 512.795C-16.6201 484.715 -15.9384 456.613 -18.2876 428.511L-38.2181 430.177L-58.1486 431.843C-56.0393 457.075 -56.649 482.305 -59.9831 507.559L-40.1551 510.177ZM-38.2181 430.177L-18.2876 428.511C-20.5625 401.298 -23.9627 374.092 -28.4868 346.895L-48.2157 350.177L-67.9446 353.459C-63.5969 379.595 -60.3321 405.723 -58.1486 431.843L-38.2181 430.177ZM-48.2157 350.177L-28.4868 346.895C-32.6929 321.61 -34.1877 296.363 -32.9839 271.13L-52.9612 270.177L-72.9384 269.224C-74.2791 297.325 -72.6102 325.411 -67.9446 353.459L-48.2157 350.177ZM-52.9612 270.177L-32.9839 271.13C-31.7362 244.977 -29.478 218.82 -26.2085 192.657L-46.0542 190.177L-65.8998 187.697C-69.2952 214.868 -71.6417 242.044 -72.9384 269.224L-52.9612 270.177ZM-46.0542 190.177L-26.2085 192.657C-22.5452 163.342 -24.6923 134.062 -32.5548 104.961L-51.8625 110.177L-71.1703 115.394C-64.6235 139.625 -62.8984 163.679 -65.8998 187.697L-46.0542 190.177ZM-51.8625 110.177L-32.5548 104.961C-39.5918 78.9144 -37.827 66.4217 -35.2836 61.7667L-52.8346 52.1771L-70.3857 42.5876C-80.9554 61.9325 -78.5425 88.1065 -71.1703 115.394L-51.8625 110.177ZM-52.8346 52.1771L-35.2836 61.7667C-34.478 60.2924 -28.7676 53.9658 -2.69979 53.5747L-2.99984 33.5769L-3.2999 13.5792C-30.5654 13.9883 -58.0781 20.0619 -70.3857 42.5876L-52.8346 52.1771Z" fill="white"/>
</g>
<defs>
<clipPath id="clip0_237_318">
<rect width="1440" height="801" fill="white"/>
</clipPath>
</defs>
</svg>
